<?xml version="1.0" encoding="utf-8"?>
<!-- Generator: Adobe Illustrator 15.0.0, SVG Export Plug-In . SVG Version: 6.00 Build 0)  -->
<!DOCTYPE svg PUBLIC "-//W3C//DTD SVG 1.1//EN" "http://www.w3.org/Graphics/SVG/1.1/DTD/svg11.dtd">
<svg version="1.1" id="Segmentation" xmlns="http://www.w3.org/2000/svg" xmlns:xlink="http://www.w3.org/1999/xlink" x="0px"
	 y="0px" width="396px" height="521px" viewBox="0 0 396 521" enable-background="new 0 0 396 521" xml:space="preserve">
<polygon id="Area_x5F_13" fill="none" stroke="#000000" stroke-miterlimit="10" points="371.845,121.053 371.47,124.532 
	366.595,129.907 360.345,135.97 355.907,140.157 351.845,143.72 348.865,145.949 352.782,140.449 356.532,137.032 362.47,132.261 
	367.782,126.72 "/>
<polygon id="Area_x5F_11" fill="none" stroke="#000000" stroke-miterlimit="10" points="371.47,124.532 371.845,121.053 
	373.97,117.657 375.407,116.032 376.032,115.615 376.345,116.157 375.907,117.595 375.657,118.407 376.345,118.345 377.657,116.532 
	383.782,107.907 382.032,111.22 377.97,117.47 374.782,121.532 "/>
<polygon id="Area_x5F_12" fill="none" stroke="#000000" stroke-miterlimit="10" points="353.365,109.532 355.157,113.407 
	357.407,115.615 359.407,115.615 364.282,111.282 373.157,99.865 380.032,96.907 382.782,94.657 384.032,96.782 385.657,97.407 
	388.532,97.407 387.657,100.595 386.157,103.782 383.782,107.907 377.657,116.532 376.345,118.345 375.657,118.407 376.345,116.157 
	376.032,115.615 375.407,116.032 373.97,117.657 371.845,121.053 367.782,126.72 362.47,132.261 356.532,137.032 352.782,140.449 
	350.365,142.115 346.782,145.115 343.032,148.449 339.865,150.199 337.865,150.583 336.449,149.865 336.115,148.199 
	337.449,145.449 340.282,140.449 342.532,138.115 345.032,135.282 346.657,131.407 346.657,127.907 345.407,123.657 
	345.657,119.136 346.657,114.782 346.657,112.407 349.407,111.532 "/>
<polygon id="Area_x5F_45A" fill="none" stroke="#000000" stroke-miterlimit="10" points="370.157,91.157 368.157,95.282 
	366.907,96.032 364.407,98.532 359.032,102.532 353.365,107.032 353.365,109.532 355.157,113.407 357.407,115.615 359.407,115.615 
	364.282,111.282 373.157,99.865 371.782,96.032 370.907,92.282 "/>
<polygon id="Area_x5F_9-46v" fill="none" stroke="#000000" stroke-miterlimit="10" points="373.157,99.865 371.782,96.032 
	370.907,92.282 370.157,91.157 369.532,85.845 368.157,81.199 368.157,78.407 369.532,76.032 372.157,74.282 373.157,71.907 
	377.032,73.282 376.532,76.032 376.532,81.199 377.032,83.657 379.407,87.199 382.032,90.907 382.782,93.032 382.782,94.657 
	380.032,96.907 "/>
<polygon id="Area_x5F_46v" fill="none" stroke="#000000" stroke-miterlimit="10" points="377.032,73.282 379.657,74.157 
	381.407,74.782 383.407,74.782 386.032,75.532 387.657,79.032 389.532,85.886 389.532,90.657 389.532,94.032 388.532,97.407 
	385.657,97.407 384.032,96.782 382.782,94.657 382.782,93.032 382.032,90.907 377.032,83.657 376.532,81.199 376.532,76.032 "/>
<polygon id="Area_x5F_46d" fill="none" stroke="#000000" stroke-miterlimit="10" points="387.657,79.032 385.907,73.282 
	382.782,67.282 380.282,63.782 377.782,62.282 373.907,62.032 371.907,62.657 370.657,64.636 371.095,67.157 373.157,70.407 
	374.496,72.382 377.032,73.282 381.407,74.782 383.407,74.782 386.032,75.532 "/>
<polygon id="Area_x5F_45B" fill="none" stroke="#000000" stroke-miterlimit="10" points="366.224,90.032 364.657,91.157 
	361.282,93.157 358.157,93.157 355.657,91.157 350.907,82.782 343.907,73.282 342.532,74.032 342.532,75.532 342.532,77.532 
	343.782,81.199 345.157,85.345 346.032,87.199 346.657,89.532 346.657,92.282 348.032,94.657 350.407,98.032 351.815,102.407 
	353.365,107.032 359.032,102.532 364.407,98.532 366.907,96.032 365.657,96.032 365.907,93.657 "/>
<polygon id="Area_x5F_8l" fill="none" stroke="#000000" stroke-miterlimit="10" points="366.032,87.199 366.224,90.032 
	364.657,91.157 361.282,93.157 358.157,93.157 355.657,91.157 350.907,82.782 343.907,73.282 340.657,71.907 339.032,71.907 
	337.657,69.907 337.407,67.032 343.532,67.032 351.032,67.907 355.532,67.907 358.157,66.845 359.532,69.532 363.199,78.032 "/>
<polygon id="Area_x5F_8r" fill="none" stroke="#000000" stroke-miterlimit="10" points="361.907,55.032 363.199,55.907 
	364.032,58.907 364.657,61.907 365.657,64.303 368.032,66.032 370.157,67.907 373.157,71.907 372.157,74.282 369.532,76.032 
	368.157,78.407 368.157,81.199 369.532,85.845 370.157,91.157 368.157,95.282 366.907,96.032 365.657,96.032 365.907,93.657 
	366.282,90.907 366.032,87.199 363.199,78.032 359.532,69.532 358.157,66.845 359.407,62.782 359.407,60.22 360.282,56.907 "/>
<polygon id="Area_x5F_9-46d" fill="none" stroke="#000000" stroke-miterlimit="10" points="361.907,55.032 363.199,51.93 
	366.032,53.282 377.032,60.22 378.907,62.157 380.282,63.782 377.782,62.282 373.907,62.032 371.907,62.657 370.657,64.636 
	371.095,67.157 373.157,70.407 374.496,72.382 373.157,71.907 370.157,67.907 368.032,66.032 365.657,64.303 364.657,61.907 
	364.032,58.907 363.199,55.907 "/>
<polygon id="Area_x5F_44" fill="none" stroke="#000000" stroke-miterlimit="10" points="343.907,73.282 340.657,71.907 
	339.032,71.907 337.657,69.907 337.407,67.032 335.032,67.032 331.782,65.782 329.699,67.907 326.907,71.032 326.032,73.282 
	326.657,76.032 332.032,82.157 339.032,90.032 343.282,97.657 344.782,104.282 344.782,108.157 345.407,111.032 346.657,112.407 
	349.407,111.532 353.365,109.532 353.365,107.032 351.815,102.407 350.407,98.032 346.657,92.282 346.657,89.532 346.032,87.199 
	345.157,85.345 342.532,77.532 342.532,74.032 "/>
<polygon id="Area_x5F_8m" fill="none" stroke="#000000" stroke-miterlimit="10" points="331.782,65.782 335.032,67.032 
	337.407,67.032 343.532,67.032 351.032,67.907 355.532,67.907 358.157,66.845 359.407,62.782 359.407,60.22 360.282,56.907 
	361.907,55.032 363.199,51.93 355.032,48.032 350.407,46.157 346.657,45.907 343.407,46.657 340.907,47.407 338.157,46.782 
	335.032,45.782 333.407,50.907 332.532,51.782 334.282,52.782 334.282,54.532 332.845,58.657 331.532,63.407 "/>
<polygon id="Area_x5F_8B" fill="none" stroke="#000000" stroke-miterlimit="10" points="336.782,38.907 334.282,38.907 
	331.532,39.532 330.282,40.907 329.699,43.032 335.032,45.782 338.157,46.782 340.907,47.407 343.407,46.657 346.657,45.907 
	350.407,46.157 355.032,48.032 366.032,53.282 377.032,60.22 373.032,55.907 365.782,49.657 359.532,45.782 356.282,43.907 
	351.407,42.282 343.282,40.282 "/>
<polygon id="Area_x5F_F7" fill="none" stroke="#000000" stroke-miterlimit="10" points="336.782,38.907 343.282,40.282 
	351.407,42.282 356.282,43.907 350.532,40.657 342.157,36.657 337.407,34.782 "/>
<polygon id="Area_x5F_F5" fill="none" stroke="#000000" stroke-miterlimit="10" points="315.157,101.657 315.157,99.865 
	312.657,94.907 309.532,90.032 307.782,84.032 306.532,74.782 305.657,62.532 306.657,55.907 307.782,51.907 311.282,48.782 
	316.782,48.032 322.782,49.657 329.699,51.282 332.532,51.782 334.282,52.782 334.282,54.532 332.845,58.657 331.532,63.407 
	331.782,65.782 329.699,67.907 326.907,71.032 326.032,73.282 326.657,76.032 332.032,82.157 339.032,90.032 343.282,97.657 
	344.782,104.282 344.782,108.157 345.407,111.032 346.657,112.407 346.657,114.782 345.657,119.136 345.407,123.657 
	342.532,118.657 340.032,113.407 337.532,111.282 332.845,108.657 327.032,106.032 317.949,102.657 "/>
<polygon id="Area_x5F_F4" fill="none" stroke="#000000" stroke-miterlimit="10" points="297.532,38.574 295.664,41.657 
	295.664,45.657 296.782,51.407 298.907,59.282 302.783,76.032 305.907,84.282 307.782,88.947 309.532,90.032 307.782,84.032 
	306.532,74.782 305.657,62.532 306.657,55.907 307.782,51.907 311.282,48.782 316.782,48.032 322.782,49.657 329.699,51.282 
	332.532,51.782 333.407,50.907 335.032,45.782 329.699,43.032 326.157,41.782 322.157,41.657 315.782,41.407 310.157,41.282 
	302.783,39.657 "/>
<polygon id="Area_x5F_F2" fill="none" stroke="#000000" stroke-miterlimit="10" points="281.532,14.157 293.157,17.657 
	306.532,22.657 323.532,29.032 333.907,33.157 337.407,34.782 336.782,38.907 334.282,38.907 331.532,39.532 330.282,40.907 
	329.699,42.032 329.699,43.032 326.157,41.782 322.157,41.657 315.782,41.407 310.157,41.282 302.783,39.657 297.532,38.574 
	295.664,37.032 293.532,32.907 294.782,31.782 298.033,31.782 300.907,30.657 300.907,29.032 299.282,25.282 296.657,22.532 
	288.782,18.032 "/>
<polygon id="Area_x5F_F1" fill="none" stroke="#000000" stroke-miterlimit="10" points="220.532,7.032 228.157,7.032 243.869,8.032 
	257.26,9.532 271.032,11.657 281.532,14.157 288.782,18.032 296.657,22.532 299.282,25.282 300.907,29.032 300.907,30.657 
	298.033,31.782 294.782,31.782 293.532,32.907 294.282,34.532 295.664,37.032 297.532,38.574 295.664,41.657 295.664,45.657 
	296.782,51.407 298.907,59.282 302.783,76.032 305.907,84.282 307.782,88.947 306.532,90.657 304.407,92.282 301.907,92.282 
	299.907,90.657 298.782,87.782 291.282,68.907 286.407,58.157 281.157,50.74 274.407,45.282 265.407,39.657 254.532,34.532 
	249.532,29.782 245.157,25.157 242.532,21.407 242.532,14.282 240.782,12.532 238.035,11.407 231.657,10.282 225.157,9.115 
	222.782,8.532 "/>
<polygon id="Area_x5F_Gu" fill="none" stroke="#000000" stroke-miterlimit="10" points="324.157,128.657 328.615,127.032 
	334.657,126.407 339.157,127.532 342.532,130.032 342.532,132.657 341.032,135.032 339.657,136.532 336.532,136.532 
	333.345,136.865 328.615,138.115 325.657,136.282 324.157,134.657 323.157,132.157 323.407,130.157 "/>
<polygon id="Area_x5F_ProM" fill="none" stroke="#000000" stroke-miterlimit="10" points="315.157,101.657 317.949,102.657 
	327.032,106.032 332.845,108.657 337.532,111.282 340.032,113.407 342.532,118.657 345.407,123.657 346.657,127.907 
	346.657,131.407 345.032,135.282 342.532,138.115 340.282,140.449 340.865,138.115 339.657,136.532 341.032,135.032 
	342.532,132.657 342.532,130.032 339.157,127.532 334.657,126.407 328.615,127.032 324.157,128.657 321.532,127.282 
	318.532,124.032 316.782,120.157 315.782,115.615 314.282,113.407 312.907,111.157 312.032,109.157 312.157,105.657 
	312.657,103.689 "/>
<polygon id="Area_x5F_3" fill="none" stroke="#000000" stroke-miterlimit="10" points="199.365,8.532 209.282,7.782 220.532,7.032 
	222.782,8.532 225.157,9.115 231.657,10.282 238.035,11.407 240.782,12.532 242.532,14.282 242.532,16.407 242.532,18.907 
	242.532,21.407 245.157,25.157 249.532,29.782 254.532,34.532 265.407,39.657 274.407,45.282 281.157,50.74 286.407,58.157 
	291.282,68.907 296.157,81.199 298.782,87.782 299.907,90.657 301.907,92.282 304.407,92.282 306.532,90.657 307.782,88.947 
	309.532,90.032 312.657,94.907 315.157,99.865 315.157,101.657 314.032,102.657 312.657,103.689 312.157,105.657 312.032,109.157 
	312.907,111.157 314.282,113.407 309.282,111.782 301.657,108.407 294.782,103.689 286.282,96.907 275.532,87.199 266.407,79.657 
	262.407,74.657 259.532,69.282 255.532,63.782 250.407,59.282 245.115,56.032 242.157,53.657 242.532,51.282 241.657,47.657 
	239.782,44.532 234.907,38.574 229.407,33.532 221.782,25.407 219.407,21.782 218.532,18.032 216.157,15.032 213.032,13.532 
	207.907,12.282 202.613,10.532 "/>
<polygon id="Area_x5F_1" fill="none" stroke="#000000" stroke-miterlimit="10" points="192.782,9.115 199.365,8.532 202.613,10.532 
	207.907,12.282 213.032,13.532 216.157,15.032 218.532,18.032 219.407,21.782 221.782,25.407 229.407,33.532 234.907,38.574 
	239.782,44.532 241.657,47.657 242.532,51.282 242.157,53.657 236.782,53.657 231.657,51.282 223.157,45.657 220.032,42.282 
	218.907,40.032 218.032,37.282 215.282,32.407 210.532,24.657 205.782,18.407 202.613,15.907 196.782,12.407 "/>
<polygon id="Area_x5F_OPRO" fill="none" stroke="#000000" stroke-miterlimit="10" points="328.615,138.115 329.699,138.949 
	329.115,141.115 326.199,144.532 323.699,146.615 322.949,147.865 323.199,150.115 324.699,153.699 325.283,158.532 
	324.283,162.449 322.033,166.699 320.283,170.032 318.699,173.949 318.199,176.532 317.949,178.699 320.199,175.949 
	324.865,170.032 329.282,165.282 334.282,160.115 338.699,155.865 343.782,150.583 348.865,145.949 350.532,143.365 
	352.782,140.449 350.365,142.115 346.782,145.115 343.032,148.449 339.865,150.199 337.865,150.583 336.449,149.865 
	336.115,148.199 337.449,145.449 340.282,140.449 340.865,138.115 339.657,136.532 336.532,136.532 333.345,136.865 "/>
<polygon id="Area_x5F_SII" fill="none" stroke="#000000" stroke-miterlimit="10" points="230.949,103.689 230.949,100.365 
	229.449,97.115 227.115,90.782 226.199,86.699 226.199,83.282 226.865,79.365 227.282,77.478 228.615,76.032 237.407,77.782 
	246.407,81.199 256.532,85.782 263.782,90.782 267.657,95.532 270.782,100.657 275.407,105.907 280.782,111.032 288.407,114.532 
	298.033,117.282 307.22,119.136 313.782,120.157 316.782,120.157 318.532,124.032 321.532,127.282 324.157,128.657 323.407,130.157 
	323.157,132.157 324.157,134.657 325.657,136.282 328.615,138.115 326.365,138.282 323.699,139.365 319.533,141.782 
	315.365,144.032 311.865,144.532 309.283,144.115 306.783,141.782 304.033,138.865 297.615,134.115 290.782,130.699 
	284.865,128.365 277.699,126.365 268.865,123.115 252.199,114.949 237.199,107.449 "/>
<polygon id="Area_x5F_2" fill="none" stroke="#000000" stroke-miterlimit="10" points="186.782,9.115 192.782,9.115 196.782,12.407 
	202.613,15.907 205.782,18.407 210.532,24.657 215.282,32.407 218.032,37.282 218.907,40.032 220.032,42.282 223.157,45.657 
	231.657,51.282 236.782,53.657 239.657,53.657 242.157,53.657 245.115,56.032 250.407,59.282 255.532,63.782 259.532,69.282 
	262.407,74.657 266.407,79.657 275.532,87.199 286.282,96.907 294.782,103.689 301.657,108.407 309.282,111.782 314.282,113.407 
	315.782,115.615 316.782,120.157 313.782,120.157 307.22,119.136 298.033,117.282 288.407,114.532 280.782,111.032 275.407,105.907 
	270.782,100.657 267.657,95.532 263.782,90.782 256.532,85.782 246.407,81.199 237.407,77.782 235.27,77.356 230.949,73.407 
	223.532,65.157 217.407,56.907 213.282,52.282 210.532,49.865 209.032,48.282 205.032,45.949 200.782,42.949 199.865,41.532 
	199.949,40.532 201.615,38.365 205.615,34.699 207.032,31.782 207.365,29.365 207.032,27.532 205.365,25.282 201.282,21.699 
	197.282,18.949 193.699,17.115 191.865,15.782 190.699,13.199 188.782,9.949 "/>
<polygon id="Area_x5F_Pi" fill="none" stroke="#000000" stroke-miterlimit="10" points="276.365,161.115 277.596,159.907 
	279.032,159.22 281.596,159.22 284.346,159.845 287.032,161.782 290.782,166.032 293.971,170.095 296.721,172.407 299.971,174.407 
	302.282,175.22 304.157,175.532 305.471,176.157 306.532,178.157 307.22,182.782 307.22,190.032 307.22,192.407 306.845,195.97 
	306.865,198.449 305.971,200.532 305.096,201.782 302.783,201.865 302.657,199.47 302.282,197.199 300.949,193.115 298.783,187.824 
	295.949,182.865 291.949,177.699 285.449,170.699 "/>
<polygon id="Area_x5F_INS" fill="none" stroke="#000000" stroke-miterlimit="10" points="279.032,159.22 277.596,159.907 
	276.365,161.115 273.782,161.115 270.948,159.865 266.365,156.449 262.865,153.199 257.615,147.615 253.282,140.532 
	252.199,137.699 249.199,134.032 244.199,129.615 236.782,123.365 231.949,119.136 228.865,115.199 226.782,111.699 
	222.032,106.282 216.699,101.699 208.532,96.865 198.199,90.699 193.615,88.115 194.948,87.591 195.423,86.032 193.615,81.199 
	199.365,84.449 207.699,88.947 215.783,94.115 226.533,101.032 237.199,107.449 252.199,114.949 268.865,123.115 277.699,126.365 
	284.865,128.365 290.782,130.699 297.615,134.115 304.033,138.865 306.783,141.782 309.283,144.115 311.865,144.532 
	315.365,144.032 319.533,141.782 323.699,139.365 326.365,138.282 328.615,138.115 329.699,138.949 329.115,141.115 
	326.199,144.532 323.699,146.615 322.949,147.865 323.199,150.115 324.699,153.699 325.283,158.532 324.283,162.449 
	322.033,166.699 320.283,170.032 318.699,173.949 318.199,176.532 317.949,178.699 313.533,185.699 310.199,192.949 
	307.615,197.905 306.845,195.97 307.22,192.407 307.22,190.032 307.22,182.782 306.532,178.157 305.471,176.157 304.157,175.532 
	302.282,175.22 299.971,174.407 296.721,172.407 293.971,170.095 290.782,166.032 287.032,161.782 284.346,159.845 281.596,159.22 
	"/>
<polygon id="Area_x5F_7op" fill="none" stroke="#000000" stroke-miterlimit="10" points="190.115,61.032 196.949,62.782 
	208.949,66.865 220.449,71.532 228.615,76.032 227.282,77.478 226.865,79.365 226.199,83.282 226.199,86.699 227.115,90.782 
	229.449,97.115 230.949,100.365 230.949,102.365 230.949,103.689 226.533,101.032 215.783,94.115 207.699,88.947 199.365,84.449 
	193.615,81.199 191.698,78.052 188.115,74.865 182.865,71.615 179.948,69.365 177.115,66.032 174.279,60.302 179.115,60.115 
	183.615,60.282 "/>
<polygon id="Area_x5F_7B" fill="none" stroke="#000000" stroke-miterlimit="10" points="210.532,49.865 213.282,52.282 
	217.407,56.907 223.532,65.157 230.949,73.407 235.27,77.356 228.615,76.032 220.449,71.532 208.949,66.865 196.949,62.782 
	190.115,61.032 188.115,50.282 190.782,49.032 194.282,49.032 194.949,48.282 197.699,49.032 205.865,49.865 "/>
<polygon id="Area_x5F_AIP" fill="none" stroke="#000000" stroke-miterlimit="10" points="179.782,27.282 185.032,28.282 
	188.115,29.782 196.615,36.449 201.615,38.365 200.532,39.657 199.949,40.532 199.865,41.532 200.782,42.949 205.032,45.949 
	208.032,47.615 209.032,48.282 210.532,49.865 205.865,49.865 197.699,49.032 194.949,48.282 194.282,47.115 193.032,46.115 
	190.699,44.615 187.449,42.199 185.199,39.615 180.949,34.032 178.949,32.449 "/>
<polygon id="Area_x5F_5" fill="none" stroke="#000000" stroke-miterlimit="10" points="155.949,16.199 161.949,13.615 
	168.449,11.449 174.865,9.865 180.615,9.115 183.699,9.115 186.782,9.115 188.782,9.949 190.699,13.199 191.865,15.782 
	193.699,17.115 197.282,18.949 201.282,21.699 205.365,25.282 207.032,27.532 207.365,29.365 207.032,31.782 205.615,34.699 
	203.032,37.199 201.615,38.365 196.615,36.449 192.282,33.115 188.115,29.782 185.032,28.282 179.782,27.282 175.032,25.865 
	169.115,24.282 165.032,23.615 160.865,23.615 161.949,21.032 161.949,20.115 161.365,17.949 160.282,16.115 158.365,15.782 "/>
<polygon id="Area_x5F_POLE" fill="none" stroke="#000000" stroke-miterlimit="10" points="289.157,235.47 291.032,232.157 
	292.657,230.782 296.157,226.407 298.282,222.157 298.282,220.032 297.407,218.532 296.157,218.407 293.782,211.782 
	292.532,206.282 293.032,204.532 294.407,203.532 296.157,200.907 299.532,201.032 301.407,201.865 302.783,201.865 
	305.096,201.782 305.971,200.532 307.615,197.905 308.465,196.277 307.532,200.72 304.846,210.845 301.782,220.095 299.532,225.47 
	296.471,229.907 292.782,234.095 "/>
<polygon id="Area_x5F_STPr" fill="none" stroke="#000000" stroke-miterlimit="10" points="259.782,186.407 254.032,197.157 
	258.532,202.407 266.157,209.782 275.782,217.032 284.407,221.782 288.407,223.657 291.791,224.532 292.657,225.282 
	292.657,227.282 291.791,230.282 291.032,232.157 292.657,230.782 296.157,226.407 298.282,222.157 298.282,220.032 
	297.407,218.532 296.157,218.407 295.282,218.657 293.032,217.407 280.907,207.157 269.032,195.782 "/>
<polygon id="Area_x5F_TEa-ma" fill="none" stroke="#000000" stroke-miterlimit="10" points="239.021,213.293 248.282,217.657 
	261.657,224.782 272.032,230.032 282.407,232.782 291.537,230.909 289.157,235.47 285.596,237.532 281.782,239.157 273.657,238.282 
	254.032,233.532 234.282,227.657 228.782,225.532 226.199,222.032 232.032,220.907 238.164,218.657 239.657,217.032 "/>
<polygon id="Area_x5F_TEad" fill="none" stroke="#000000" stroke-miterlimit="10" points="281.782,239.157 279.282,241.72 
	276.157,243.345 270.346,244.97 263.907,245.72 258.846,245.907 252.971,245.345 239.782,242.407 229.782,239.095 228.532,235.47 
	228.532,231.032 228.782,225.532 234.282,227.657 254.032,233.532 273.657,238.282 "/>
<polygon id="Area_x5F_TEav" fill="none" stroke="#000000" stroke-miterlimit="10" points="229.782,239.095 227.096,242.22 
	231.157,243.532 238.096,245.282 246.596,246.657 253.657,247.345 257.346,247.345 260.657,247.345 264.721,247.032 
	270.596,246.157 277.346,244.032 284.157,240.72 288.782,237.532 292.096,234.907 292.782,234.095 289.157,235.47 285.596,237.532 
	281.782,239.157 280.657,240.157 279.282,241.72 276.157,243.345 270.346,244.97 263.907,245.72 258.846,245.907 252.971,245.345 
	239.782,242.407 "/>
<polygon id="Area_x5F_TEpv" fill="none" stroke="#000000" stroke-miterlimit="10" points="162.532,205.865 159.532,208.199 
	158.449,209.532 158.199,210.782 159.449,212.199 160.282,213.532 159.532,214.365 157.949,215.532 163.657,217.615 
	173.782,222.032 181.699,225.532 188.115,228.407 193.615,230.282 201.157,233.365 205.949,235.282 209.782,236.532 
	216.365,239.095 222.199,241.115 227.096,242.22 229.782,239.095 226.199,237.615 220.199,235.72 208.282,231.282 191.407,224.282 
	177.782,217.115 169.907,212.032 164.532,207.199 "/>
<polygon id="Area_x5F_MB" fill="none" stroke="#000000" stroke-miterlimit="10" points="188.657,87.282 184.923,89.33 
	192.907,94.907 201.157,100.532 210.782,106.282 220.532,114.032 230.282,123.032 241.782,134.657 248.907,143.782 261.657,159.22 
	273.032,170.907 283.657,182.532 293.532,193.782 297.657,199.157 299.532,201.032 301.407,201.865 302.783,201.865 302.657,199.47 
	302.282,197.199 300.949,193.115 298.783,187.824 295.949,182.865 291.949,177.699 285.449,170.699 276.365,161.115 
	273.782,161.115 270.948,159.865 266.365,156.449 262.865,153.199 257.615,147.615 253.282,140.532 252.199,137.699 
	249.199,134.032 244.199,129.615 231.949,119.136 228.865,115.199 226.782,111.699 222.032,106.282 216.699,101.699 198.199,90.699 
	193.615,88.115 "/>
<polygon id="Area_x5F_Core" fill="none" stroke="#000000" stroke-miterlimit="10" points="201.157,100.532 205.657,106.282 
	214.032,114.282 225.407,126.282 232.907,135.657 238.032,142.407 245.157,149.032 253.657,157.532 262.407,168.157 
	267.157,173.657 268.907,177.032 270.157,179.157 274.907,181.907 282.157,188.907 290.532,196.532 294.657,200.157 
	296.157,200.907 299.532,201.032 297.657,199.157 293.532,193.782 283.657,182.532 273.032,170.907 261.657,159.22 248.907,143.782 
	241.782,134.657 230.282,123.032 220.532,114.032 210.782,106.282 "/>
<polygon id="Area_x5F_LB" fill="none" stroke="#000000" stroke-miterlimit="10" points="184.923,89.33 180.173,91.935 
	184.923,98.032 193.615,105.907 202.032,111.907 211.691,119.136 221.907,129.282 233.157,142.782 242.282,152.657 245.782,157.615 
	249.282,163.657 254.282,170.657 261.032,177.782 267.157,183.657 276.365,189.157 285.532,197.905 289.282,201.865 
	293.032,204.532 294.407,203.532 296.157,200.907 294.657,200.157 290.532,196.532 282.157,188.907 274.907,181.907 
	270.157,179.157 267.157,173.657 262.407,168.157 253.657,157.532 245.157,149.032 238.032,142.407 225.407,126.282 
	214.032,114.282 205.657,106.282 201.157,100.532 192.907,94.907 "/>
<polygon id="Area_x5F_PBr" fill="none" stroke="#000000" stroke-miterlimit="10" points="242.032,169.532 249.407,176.407 
	259.782,186.407 269.032,195.782 280.907,207.157 293.032,217.407 295.282,218.657 296.157,218.407 293.782,211.782 
	292.532,206.282 293.032,204.532 289.282,201.865 285.532,197.905 276.365,189.157 267.157,183.657 261.032,177.782 
	254.282,170.657 249.282,163.657 245.782,157.615 243.854,157.032 242.032,157.032 240.782,158.407 240.782,160.532 
	242.157,163.157 242.657,166.407 "/>
<polygon id="Area_x5F_PBc" fill="none" stroke="#000000" stroke-miterlimit="10" points="245.782,157.615 243.854,157.032 
	242.032,157.032 240.782,158.407 240.782,160.532 242.157,163.157 242.657,166.407 242.032,169.532 238.164,166.282 232.532,159.22 
	228.657,150.782 223.157,144.532 212.282,129.407 207.157,124.407 198.157,117.907 188.115,109.657 179.407,99.657 174.782,94.282 
	177.032,93.657 180.173,91.935 184.923,98.032 193.615,105.907 202.032,111.907 211.691,119.136 221.907,129.282 233.157,142.782 
	242.282,152.657 "/>
<polygon id="Area_x5F_STPi" fill="none" stroke="#000000" stroke-miterlimit="10" points="259.782,186.407 249.407,176.407 
	242.032,169.532 238.164,166.282 232.532,159.22 228.657,150.782 223.157,144.532 212.282,129.407 207.157,124.407 198.157,117.907 
	199.365,124.282 199.365,129.782 198.782,133.532 197.032,136.157 196.157,136.407 194.532,134.657 192.657,133.032 
	191.407,133.407 191.407,134.407 195.423,141.157 204.282,152.782 219.032,167.657 239.032,184.657 254.032,197.157 "/>
<polygon id="Area_x5F_PGa" fill="none" stroke="#000000" stroke-miterlimit="10" points="163.657,125.782 171.657,135.407 
	177.282,140.782 185.782,149.532 194.282,159.907 203.157,168.282 205.907,169.532 210.282,172.532 219.907,180.543 
	233.657,193.782 248.032,207.407 253.032,212.032 258.532,216.532 262.907,219.532 267.032,221.282 270.032,223.282 
	273.157,225.657 278.032,227.657 283.407,228.407 287.407,228.407 290.282,226.282 290.963,224.318 288.407,223.657 
	284.407,221.782 275.782,217.032 266.157,209.782 258.532,202.407 254.032,197.157 239.032,184.657 219.032,167.657 
	204.282,152.782 195.423,141.157 191.407,134.407 191.407,133.407 188.115,129.032 177.782,119.136 173.407,115.657 "/>
<polygon id="Area_x5F_IPa" fill="none" stroke="#000000" stroke-miterlimit="10" points="203.157,168.282 206.782,174.282 
	208.282,178.782 208.282,183.032 207.282,186.407 205.532,189.782 208.282,192.157 212.282,197.157 220.032,203.282 
	235.282,211.532 248.282,217.657 261.657,224.782 272.032,230.032 282.407,232.782 291.537,230.909 291.791,230.282 
	292.657,227.282 292.657,225.282 291.791,224.532 290.963,224.318 290.282,226.282 287.407,228.407 283.407,228.407 
	278.032,227.657 273.157,225.657 270.032,223.282 267.032,221.282 262.907,219.532 258.532,216.532 253.032,212.032 
	248.032,207.407 233.657,193.782 219.907,180.543 210.282,172.532 205.907,169.532 "/>
<polygon id="Area_x5F_TEa-mp" fill="none" stroke="#000000" stroke-miterlimit="10" points="226.199,222.032 214.532,215.782 
	201.157,205.407 188.532,195.532 176.907,182.907 169.907,176.907 165.907,174.532 169.907,179.657 174.782,188.407 
	177.032,193.032 177.157,195.03 176.657,197.905 174.782,199.032 169.907,198.865 161.282,197.905 155.865,197.905 154.199,197.905 
	153.532,198.615 153.532,199.949 155.699,201.449 162.032,205.532 164.532,207.199 169.907,212.032 177.782,217.115 
	191.407,224.282 208.282,231.282 220.199,235.72 226.199,237.615 229.782,239.095 228.532,235.47 228.532,231.032 228.782,225.532 
	"/>
<polygon id="Area_x5F_PGa_1_" fill="none" stroke="#000000" stroke-miterlimit="10" points="169.907,176.907 176.907,182.907 
	188.532,195.532 201.157,205.407 214.532,215.782 226.199,222.032 232.032,220.907 238.164,218.657 239.657,217.032 
	239.021,213.293 235.282,211.532 220.032,203.282 212.282,197.157 208.282,192.157 205.532,189.782 199.782,186.407 
	194.157,182.782 182.657,170.907 180.173,168.028 178.407,172.032 176.282,175.157 173.407,176.907 "/>
<polygon id="Area_x5F_FST" fill="none" stroke="#000000" stroke-miterlimit="10" points="150.157,113.407 151.782,114.407 
	155.949,119.136 161.949,124.657 163.657,125.782 171.657,135.407 177.282,140.782 185.782,149.532 194.282,159.907 
	203.157,168.282 206.782,174.282 208.282,178.782 208.282,183.032 207.282,186.407 205.532,189.782 199.782,186.407 
	194.157,182.782 182.657,170.907 174.782,161.782 164.532,149.407 163.657,145.907 163.657,143.282 161.157,136.407 
	155.157,126.407 152.532,120.157 "/>
<polygon id="Area_x5F_TPt" fill="none" stroke="#000000" stroke-miterlimit="10" points="174.279,60.302 166.782,60.22 
	158.032,61.032 156.782,64.636 155.949,68.032 155.949,71.157 157.282,74.032 161.949,79.907 168.032,87.532 171.782,92.282 
	174.782,94.282 177.032,93.657 188.657,87.282 191.157,87.782 193.615,88.115 195.423,86.032 193.615,81.199 191.698,78.052 
	188.115,74.865 182.865,71.615 179.948,69.365 177.115,66.032 "/>
<polygon id="Area_x5F_STPc" fill="none" stroke="#000000" stroke-miterlimit="10" points="191.407,133.407 188.115,129.032 
	177.782,119.136 173.407,115.657 167.907,108.657 158.907,98.282 150.407,88.157 147.407,82.782 145.824,77.907 145.282,72.032 
	147.032,67.907 151.907,62.819 154.282,61.032 158.032,61.032 156.782,64.636 155.949,68.032 155.949,71.157 157.282,74.032 
	161.949,79.907 168.032,87.532 171.782,92.282 174.782,94.282 179.407,99.657 188.115,109.657 198.157,117.907 199.365,124.282 
	199.365,129.782 198.782,133.532 197.032,136.157 196.157,136.407 192.657,133.032 "/>
<polygon id="Area_x5F_MST" fill="none" stroke="#000000" stroke-miterlimit="10" points="154.282,61.032 151.032,61.032 
	147.282,59.157 137.532,53.657 127.282,50.282 122.407,49.657 118.657,49.657 111.782,51.282 106.657,54.282 107.282,56.657 
	110.907,58.032 117.407,62.819 125.032,74.407 132.532,87.282 144.782,103.689 150.157,113.407 151.782,114.407 155.949,119.136 
	161.949,124.657 163.657,125.782 173.407,115.657 167.907,108.657 158.907,98.282 150.407,88.157 147.407,82.782 145.824,77.907 
	145.282,72.032 147.032,67.907 151.907,62.819 "/>
<polygon id="Area_x5F_7A" fill="none" stroke="#000000" stroke-miterlimit="10" points="188.115,50.282 190.115,61.032 
	183.615,60.282 179.115,60.115 174.279,60.302 166.782,60.22 158.032,61.032 154.282,61.032 151.032,61.032 147.282,59.157 
	137.532,53.657 127.282,50.282 122.407,49.657 118.657,49.657 111.782,51.282 106.657,54.282 105.532,53.657 102.532,49.657 
	101.532,46.782 102.365,43.282 109.532,41.865 122.782,40.365 136.032,40.032 150.115,40.615 162.865,42.199 172.449,44.199 
	181.282,46.365 186.699,49.115 "/>
<polygon id="Area_x5F_LIP" fill="none" stroke="#000000" stroke-miterlimit="10" points="100.949,42.199 107.282,40.032 
	115.615,37.782 120.532,35.949 129.615,32.782 138.282,30.532 145.74,29.449 150.365,29.032 157.199,29.032 159.782,29.032 
	163.282,29.532 170.532,30.865 177.532,32.199 178.949,32.449 180.949,34.032 185.199,39.615 187.449,42.199 190.699,44.615 
	193.032,46.115 194.282,47.115 194.949,48.282 194.282,49.032 190.782,49.032 189.699,49.365 188.115,50.282 186.699,49.115 
	181.282,46.365 172.449,44.199 162.865,42.199 150.115,40.615 136.032,40.032 122.782,40.365 109.532,41.865 102.365,43.282 "/>
<polygon id="Area_x5F_VIP" fill="none" stroke="#000000" stroke-miterlimit="10" points="120.532,35.949 123.365,34.032 
	130.532,30.699 137.532,28.532 146.449,26.282 155.115,24.532 160.865,23.615 165.032,23.615 169.115,24.282 175.032,25.865 
	179.782,27.282 178.949,32.449 177.532,32.199 170.532,30.865 163.282,29.532 159.782,29.032 150.365,29.032 145.74,29.449 
	138.282,30.532 129.615,32.782 "/>
<polygon id="Area_x5F_MIP" fill="none" stroke="#000000" stroke-miterlimit="10" points="120.532,35.949 121.699,34.115 
	125.115,31.699 132.449,27.115 141.115,22.782 150.865,18.282 155.949,16.199 158.365,15.782 160.282,16.115 161.365,17.949 
	161.949,20.115 161.949,21.032 161.449,22.365 160.865,23.615 155.115,24.532 146.449,26.282 137.532,28.532 130.532,30.699 
	123.365,34.032 122.005,34.952 121.576,35.585 "/>
<polygon id="Area_x5F_TEO" fill="none" stroke="#000000" stroke-miterlimit="10" points="142.646,158.657 142.646,163.199 
	141.615,168.028 139.949,171.199 137.407,173.199 119.865,176.907 105.365,180.032 99.949,182.115 98.615,183.532 98.615,185.199 
	100.032,187.282 106.032,190.365 121.699,197.282 135.115,202.949 147.532,208.699 159.532,214.365 160.282,213.532 
	159.449,212.199 158.199,210.782 158.449,209.532 159.532,208.199 162.532,205.865 162.032,205.532 153.532,199.949 
	153.532,198.615 154.199,197.905 161.282,197.905 169.907,198.865 174.782,199.032 176.657,197.905 177.157,195.03 177.032,193.032 
	174.782,188.407 169.907,179.657 165.907,174.532 161.409,168.907 154.532,161.282 147.532,155.479 146.157,155.479 
	144.157,157.032 "/>
<polygon id="Area_x5F_TEOm" fill="none" stroke="#000000" stroke-miterlimit="10" points="142.646,134.051 153.657,140.657 
	161.782,145.282 163.657,145.907 164.532,149.407 174.782,161.782 180.173,168.028 178.407,172.032 176.282,175.157 
	173.407,176.907 169.907,176.907 165.907,174.532 161.409,168.907 154.532,161.282 147.532,155.479 146.157,155.479 
	144.157,157.032 142.646,158.657 141.282,153.032 140.032,148.032 137.407,143.157 "/>
<polygon id="Area_x5F_V4t" fill="none" stroke="#000000" stroke-miterlimit="10" points="93.232,61.032 89.182,63.087 
	93.232,70.449 99.157,83.032 104.907,91.935 114.032,105.157 122.407,116.657 131.407,130.157 134.657,137.657 137.407,143.157 
	142.646,134.051 141.782,133.532 138.282,130.733 132.532,122.657 124.657,111.532 115.032,97.907 103.782,81.199 96.782,68.782 "/>
<polygon id="Area_x5F_MT" fill="none" stroke="#000000" stroke-miterlimit="10" points="107.282,56.657 103.532,57.032 
	98.032,58.532 93.232,61.032 96.782,68.782 103.782,81.199 115.032,97.907 124.657,111.532 132.532,122.657 138.282,130.733 
	141.782,133.532 153.657,140.657 161.782,145.282 163.657,145.907 163.657,143.282 161.157,136.407 155.157,126.407 
	152.532,120.157 150.157,113.407 144.782,103.689 132.532,87.282 125.032,74.407 117.407,62.819 110.907,58.032 "/>
<polygon id="Area_x5F_DP" fill="none" stroke="#000000" stroke-miterlimit="10" points="107.282,56.657 103.532,57.032 
	98.032,58.532 90.032,62.699 81.449,66.615 79.032,68.365 76.949,70.449 77.449,66.199 78.282,63.553 81.282,59.032 85.782,52.615 
	90.532,48.615 96.782,44.865 102.365,43.282 101.532,46.782 102.532,49.657 105.532,53.657 106.657,54.282 "/>
<polygon id="Area_x5F_PIP" fill="none" stroke="#000000" stroke-miterlimit="10" points="100.949,42.199 95.449,44.199 
	86.782,49.657 79.949,55.282 75.365,59.032 74.115,60.282 75.615,61.032 76.949,61.032 78.532,60.615 80.285,60.534 81.282,59.032 
	85.782,52.615 90.532,48.615 96.782,44.865 102.365,43.282 "/>
<polygon id="Area_x5F_V4" fill="none" stroke="#000000" stroke-miterlimit="10" points="159.532,214.365 157.949,215.532 
	149.449,211.865 141.115,208.365 138.615,207.532 136.032,206.813 133.115,205.782 129.532,203.949 118.449,199.615 
	103.782,194.032 88.532,189.782 84.449,187.865 82.199,185.865 81.365,183.199 82.199,179.282 85.532,171.449 87.532,165.199 
	89.865,159.532 91.865,156.282 94.282,151.595 95.365,145.532 94.365,137.615 91.865,124.782 88.282,113.407 83.699,103.699 
	76.782,95.865 75.615,93.199 74.449,90.615 76.115,87.72 77.449,84.365 77.449,81.199 76.282,77.699 76.032,75.115 76.949,70.449 
	79.032,68.365 81.449,66.615 89.182,63.087 93.232,70.449 99.157,83.032 104.907,91.935 114.032,105.157 122.407,116.657 
	131.407,130.157 134.657,137.657 137.407,143.157 140.032,148.032 142.646,158.657 142.646,163.199 141.615,168.028 
	139.949,171.199 137.407,173.199 119.865,176.907 105.365,180.032 99.949,182.115 98.615,183.532 98.615,185.199 100.032,187.282 
	106.032,190.365 121.699,197.282 135.115,202.949 147.532,208.699 "/>
<polygon id="Area_x5F_V3A" fill="none" stroke="#000000" stroke-miterlimit="10" points="74.115,60.282 69.949,63.782 
	65.699,67.032 64.032,67.865 61.699,72.365 61.365,74.449 62.032,77.782 63.699,81.199 66.115,83.449 68.449,85.365 70.032,87.282 
	71.282,89.115 72.782,89.949 74.449,90.615 76.115,87.72 77.449,84.365 77.449,81.199 76.282,77.699 76.032,75.115 76.949,70.449 
	77.449,66.199 78.282,63.553 80.285,60.534 78.532,60.615 76.949,61.032 75.615,61.032 "/>
<polygon id="Area_x5F_V3" fill="none" stroke="#000000" stroke-miterlimit="10" points="88.532,189.782 80.449,188.115 
	70.365,185.949 60.782,183.449 64.365,181.365 70.282,174.282 75.949,165.949 80.365,158.699 84.199,154.699 86.532,152.449 
	87.949,148.865 87.199,140.449 85.365,133.532 82.782,126.115 80.699,116.282 79.115,111.032 73.199,102.449 63.282,94.032 
	56.365,86.782 54.532,83.949 53.449,79.365 53.199,75.115 54.032,72.615 54.365,71.115 52.282,69.782 57.532,69.365 64.032,67.865 
	61.699,72.365 61.365,74.449 62.032,77.782 63.699,81.199 66.115,83.449 68.449,85.365 70.032,87.282 71.282,89.115 72.782,89.949 
	74.449,90.615 75.615,93.199 76.782,95.865 83.699,103.699 88.282,113.407 91.865,124.782 94.365,137.615 95.365,145.532 
	94.282,151.595 91.865,156.282 89.865,159.532 87.532,165.199 85.532,171.449 82.199,179.282 81.365,183.199 82.199,185.865 
	84.449,187.865 "/>
<polygon id="Area_x5F_V2" fill="none" stroke="#000000" stroke-miterlimit="10" points="52.282,69.782 46.782,69.782 41.72,69.782 
	37.282,70.095 33.657,71.657 32.157,72.657 33.532,73.907 34.47,76.407 34.282,78.907 34.157,81.407 34.157,84.845 34.782,87.782 
	37.657,92.407 44.845,100.595 53.22,108.407 60.595,113.407 68.657,119.907 74.157,124.032 76.345,126.782 76.345,129.532 
	75.47,133.407 73.824,137.157 71.282,141.345 66.907,144.032 54.251,148.157 41.282,151.47 28.845,154.97 23.095,157.407 
	18.782,160.595 16.845,164.22 19.657,167.47 24.907,171.407 32.97,175.095 41.407,178.22 52.657,181.72 58.407,183.095 
	60.782,183.449 64.365,181.365 70.282,174.282 75.949,165.949 80.365,158.699 84.199,154.699 86.532,152.449 87.949,148.865 
	87.199,140.449 85.365,133.532 82.782,126.115 80.699,116.282 79.115,111.032 73.199,102.449 63.282,94.032 56.365,86.782 
	54.532,83.949 53.449,79.365 53.199,75.115 54.365,71.115 "/>
<polygon id="Area_x5F_V1" fill="none" stroke="#000000" stroke-miterlimit="10" points="32.157,72.657 29.22,75.449 21.345,84.845 
	16.407,94.22 11.282,108.532 9.157,119.845 8.782,124.532 8.47,128.532 8.47,134.47 8.47,135.97 8.688,139.157 9.282,144.907 
	11.095,152.72 13.72,160.032 15.407,162.532 16.845,164.22 18.782,160.595 23.095,157.407 28.845,154.97 41.282,151.47 
	54.251,148.157 66.907,144.032 71.282,141.345 73.824,137.157 75.47,133.407 76.345,129.532 76.345,126.782 74.157,124.032 
	68.657,119.907 60.595,113.407 53.22,108.407 44.845,100.595 37.657,92.407 34.782,87.782 34.157,84.845 34.157,81.407 
	34.47,76.407 33.532,73.907 "/>
<polygon id="Area_x5F_V1_1_" fill="none" stroke="#000000" stroke-miterlimit="10" points="10.615,373.282 8.99,381.221 
	8.49,388.907 8.49,395.407 8.49,399.407 9.365,408.032 11.615,416.782 14.99,423.407 18.365,427.782 19.74,427.782 21.99,426.407 
	22.99,424.532 23.24,422.782 23.24,420.157 25.365,415.157 29.49,412.282 37.99,411.907 52.99,415.282 73.24,422.157 
	90.365,428.532 95.74,429.407 99.365,429.407 101.49,427.407 101.74,424.407 100.74,421.282 98.74,419.157 95.99,416.407 
	95.49,413.282 95.865,410.782 99.24,406.032 104.865,401.407 109.115,399.657 112.99,398.407 104.365,395.407 86.365,391.032 
	68.615,383.907 60.365,378.657 55.24,372.782 47.49,363.282 38.74,351.782 35.865,347.032 35.115,343.157 35.115,337.782 
	35.115,333.032 33.615,333.657 31.115,335.157 26.865,339.782 20.615,348.032 14.99,359.532 11.615,369.157 "/>
<polygon id="Area_x5F_V2_2_" fill="none" stroke="#000000" stroke-miterlimit="10" points="19.74,427.782 21.99,426.407 
	22.99,424.532 23.24,422.782 23.24,420.157 25.365,415.157 29.49,412.282 37.99,411.907 52.99,415.282 73.24,422.157 
	90.365,428.532 95.74,429.407 99.365,429.407 101.49,427.407 101.74,424.407 100.74,421.282 102.24,421.97 106.304,424.407 
	111.99,427.782 117.554,430.72 126.49,434.345 130.49,435.595 132.929,435.657 136.615,434.782 139.804,433.407 140.407,434.699 
	141.657,440.199 141.657,450.115 141.239,453.699 140.073,455.282 137.739,457.282 132.907,455.032 124.239,452.199 
	102.157,445.157 79.323,438.449 76.823,438.532 76.407,439.532 77.739,441.115 79.323,442.782 79.323,443.949 77.907,444.532 
	74.573,444.199 67.657,443.282 62.865,444.032 59.865,445.157 42.49,440.532 27.615,434.782 21.365,430.907 18.365,427.782 "/>
<polygon id="Area_x5F_Pro.St." fill="none" stroke="#000000" stroke-miterlimit="10" points="109.115,399.657 104.865,401.407 
	99.24,406.032 95.865,410.782 95.49,413.282 95.99,416.407 100.74,421.282 106.304,424.407 111.99,427.782 117.554,430.72 
	126.49,434.345 130.49,435.595 132.929,435.657 136.615,434.782 139.804,433.407 144.804,428.47 146.554,427.595 148.615,427.595 
	148.615,426.595 146.679,418.532 141.99,404.595 137.304,392.032 133.679,387.032 132.49,387.032 130.554,387.596 128.054,389.032 
	125.804,391.657 123.615,394.782 121.74,395.971 119.74,396.595 116.679,397.282 112.99,398.407 "/>
<polygon id="Area_x5F_SUB" fill="none" stroke="#000000" stroke-miterlimit="10" points="146.554,427.595 144.804,428.47 
	139.804,433.407 140.407,434.699 141.657,440.199 141.657,450.115 142.907,451.449 144.49,453.865 147.073,457.699 150.24,461.532 
	156.823,466.782 164.157,471.365 178.907,478.865 189.157,483.782 203.823,489.282 217.407,493.365 232.907,496.782 
	244.073,498.449 252.99,499.365 258.157,498.699 260.907,497.865 260.323,495.282 259.157,492.282 257.573,490.282 254.157,488.615 
	247.74,487.282 236.24,485.782 215.073,481.115 198.573,475.595 177.74,464.699 161.657,452.615 155.49,444.865 153.823,440.782 
	153.323,437.782 152.74,435.032 150.949,431.449 148.615,427.595 "/>
<polygon id="Area_x5F_ENTO" fill="none" stroke="#000000" stroke-miterlimit="10" points="203.823,489.282 217.407,493.365 
	232.907,496.782 244.073,498.449 252.99,499.365 258.157,498.699 260.907,497.865 261.323,499.365 262.74,500.199 265.657,500.615 
	273.573,500.115 282.157,497.365 288.073,494.49 292.573,491.282 298.407,485.199 301.157,481.365 300.49,483.615 298.823,487.032 
	296.907,489.699 293.74,493.115 289.073,496.949 284.24,499.365 279.24,501.449 270.323,505.282 263.99,507.199 255.407,507.615 
	247.99,507.615 238.24,506.115 227.323,503.199 217.99,499.032 210.74,495.365 200.99,491.115 189.24,486.199 187.49,485.115 
	187.49,484.532 188.24,483.967 189.651,483.967 "/>
<polygon id="Area_x5F_PERI" fill="none" stroke="#000000" stroke-miterlimit="10" points="296.907,489.699 293.74,493.115 
	289.073,496.949 284.24,499.365 279.24,501.449 270.323,505.282 263.99,507.199 255.407,507.615 247.99,507.615 238.24,506.115 
	227.323,503.199 217.99,499.032 210.74,495.365 206.509,493.521 208.323,495.282 211.657,497.74 217.532,501.074 220.615,502.407 
	228.052,504.907 237.052,507.22 248.052,508.907 254.427,509.345 256.552,509.345 263.927,508.907 271.615,507.615 278.177,505.595 
	284.677,502.407 291.677,497.032 296.24,491.72 298.823,487.032 "/>
<polyline id="Contour" fill="none" stroke="#000000" stroke-miterlimit="10" points="325.99,430.657 322.74,434.407 
	314.115,447.157 309.24,456.907 306.365,464.282 303.74,474.157 301.157,481.365 "/>
<path id="Area_x5F_23" fill="none" stroke="#000000" stroke-miterlimit="10" d="M132.49,387.032l-1.937,0.561l-2.5,1.438
	l-2.25,2.625l-2.188,3.125l-1.875,1.188l-2,0.625l-3.062,0.688l-3.688,1.125l-1.375-4.625l-2-4.375l-4.125-8.875l-3.625-5.625
	l-5.75-8.625l-2.375-7.125v-1.625h1.75l3.75-0.125l3.75-2.5l3.125-3.625l2.25-4.5v-2.125l-0.625-1.75v-1.875l3.5-1.25l3-0.25
	l0.469,1.616l0.656,2.259l2.75,2.375l3.25,1l3.375-0.75l6.875-4.375l13.625-8.625l14.625-5.5c0,0,11.625-3.25,12-3.25s13.5-3,13.5-3
	l4.375-2.25l1.25-2.125l0.125-2.125l-1.25-1.875l-2.5-1.5l-1.375-2l0.5-2.625l2.125-3.25l4-5.125l3.25-5.75l0.875-4.75l1.625-0.875
	h1.875l3.75,1l7.875,1.375l11.125,1l9-1h4.75l5.875,1.25l12.125,1.375l10.375-0.75l6.875-0.625l2.375,1.25l0.875,2.875l0.375,3.625
	l1.875,5.625l2.75,4.375l1.5,3.875v3.5l-1.375,2l-3.625,1.25l-12.625,4.125l-34.875,8.875l-21.125,3.875l-25.5,2.75l-11.875-0.625
	l-8-0.625l-7.75,2.25l-10.625,5.5l-11.687,12.375l-2.439,6.25v1.75l2.375,1h2.5l-1.969,3.25l-0.531,7.75v5.75l1.064,3.75H132.49
	L132.49,387.032z"/>
<polygon id="Area_x5F_29-30" fill="none" stroke="#000000" stroke-miterlimit="10" points="132.615,366.532 130.24,365.532 
	130.24,363.782 132.679,357.532 144.365,345.157 154.99,339.657 162.74,337.407 170.74,338.032 182.615,338.657 208.115,335.907 
	229.24,332.032 258.033,324.704 246.365,335.907 241.99,336.907 229.74,340.032 213.615,342.721 195.351,343.282 176.115,346.032 
	156.865,352.657 143.084,359.312 135.115,366.532 "/>
<polygon id="Area_x5F_V2_1_" fill="none" stroke="#000000" stroke-miterlimit="10" points="112.634,398.522 110.36,397.492 
	104.365,395.407 86.365,391.032 68.615,383.907 60.365,378.657 55.24,372.782 47.49,363.282 38.74,351.782 35.865,347.032 
	35.115,343.157 35.115,333.032 38.053,332.221 40.678,331.782 48.115,331.782 48.49,333.032 50.24,336.096 53.678,342.032 
	57.365,348.471 60.74,352.596 64.178,355.407 68.365,357.532 71.928,359.471 78.865,365.282 81.24,367.471 82.178,367.471 
	82.928,366.907 84.053,364.032 88.428,355.846 92.615,348.471 92.99,350.346 93.428,353.532 93.74,357.532 93.74,359.157 
	96.115,366.282 101.865,374.907 105.49,380.532 109.615,389.407 111.615,393.782 112.99,398.407 "/>
<polygon id="Area_x5F_V3_2_" fill="none" stroke="#000000" stroke-miterlimit="10" points="48.49,333.032 50.24,336.096 
	53.678,342.032 57.365,348.471 60.74,352.596 64.178,355.407 65.475,356.064 65.74,354.282 65.928,352.157 65.928,348.846 
	66.24,343.407 63.178,342.971 61.303,341.907 60.178,339.407 59.678,337.282 59.865,334.032 60.74,332.157 63.178,330.032 
	60.053,330.907 56.678,331.346 52.178,331.782 48.115,331.782 "/>
<polygon id="Area_x5F_V3A_1_" fill="none" stroke="#000000" stroke-miterlimit="10" points="60.74,332.157 59.865,334.032 
	59.678,337.282 60.178,339.407 61.303,341.907 63.178,342.971 66.24,343.407 68.615,339.596 71.803,334.782 73.303,332.721 
	74.053,330.471 76.053,326.346 76.74,325.096 76.24,324.532 75.24,324.971 72.928,325.721 71.365,325.221 70.74,324.532 
	68.428,326.471 63.178,330.032 "/>
<polygon id="Area_x5F_31" fill="none" stroke="#000000" stroke-miterlimit="10" points="189.865,312.907 191.115,314.782 
	190.99,316.907 189.74,319.032 185.365,321.282 171.865,324.282 159.865,327.532 145.24,333.032 131.615,341.657 124.74,346.032 
	121.365,346.782 118.115,345.782 115.365,343.407 114.24,339.532 117.074,337.782 122.074,333.532 132.24,323.699 140.657,318.782 
	150.324,316.115 161.074,314.865 173.157,314.532 178.407,314.532 182.49,312.699 187.365,311.407 "/>
<polygon id="Area_x5F_7m" fill="none" stroke="#000000" stroke-miterlimit="10" points="117.074,337.782 122.074,333.532 
	132.24,323.699 140.657,318.782 150.324,316.115 161.074,314.865 173.157,314.532 178.407,314.532 182.49,312.699 187.365,311.407 
	185.99,309.407 186.49,306.782 188.615,303.532 192.615,298.407 195.865,292.657 196.74,287.907 196.407,285.949 194.49,284.282 
	189.573,281.782 181.24,279.532 176.74,279.199 169.157,280.699 158.323,284.949 153.74,288.032 146.49,291.532 136.49,295.199 
	127.24,300.865 121.24,306.699 114.74,314.365 105.407,327.699 103.324,333.032 102.907,337.115 103.574,339.532 105.74,341.032 
	107.74,341.032 111.24,339.782 114.24,339.532 "/>
<polygon id="Area_x5F_V4_1_" fill="none" stroke="#000000" stroke-miterlimit="10" points="141.929,470.72 135.657,468.699 
	132.657,467.365 127.157,464.949 116.24,460.824 100.24,454.865 88.573,451.282 83.24,449.782 83.24,449.115 84.24,449.115 
	86.823,449.615 93.823,451.532 102.573,454.365 112.99,458.032 122.865,461.532 131.865,464.532 138.24,467.157 141.657,469.407 
	147.24,472.532 "/>
<polygon id="Area_x5F_V3_1_" fill="none" stroke="#000000" stroke-miterlimit="10" points="131.865,464.532 122.865,461.532 
	112.99,458.032 102.573,454.365 93.823,451.532 86.823,449.615 84.24,449.115 83.24,449.115 83.24,449.782 88.573,451.282 
	80.012,449.97 69.053,447.72 63.053,446.282 59.865,445.157 62.865,444.032 67.657,443.282 74.573,444.199 77.907,444.532 
	79.323,443.949 79.323,442.782 76.407,439.532 76.823,438.532 79.323,438.449 102.157,445.157 124.239,452.199 132.907,455.032 
	137.739,457.282 135.74,458.845 135.74,459.595 136.74,460.824 138.24,462.282 140.679,464.532 142.054,466.595 142.054,467.72 
	140.804,467.72 138.24,467.157 "/>
<polygon id="Area_x5F_TH-TF" fill="none" stroke="#000000" stroke-miterlimit="10" points="211.657,497.74 208.323,495.282 
	206.509,493.521 200.99,491.115 189.24,486.199 187.49,485.115 187.49,484.532 188.24,483.967 189.157,483.782 178.907,478.865 
	164.157,471.365 156.823,466.782 150.24,461.532 147.073,457.699 142.907,451.449 141.657,450.115 141.239,453.699 140.073,455.282 
	137.739,457.282 135.74,458.845 135.74,459.595 136.74,460.824 138.24,462.282 140.679,464.532 142.054,466.595 142.054,467.72 
	140.804,467.72 139.095,467.72 141.657,469.407 145.867,471.765 156.115,476.47 162.679,478.907 171.74,482.782 180.554,487.032 
	187.49,489.657 191.927,491.22 198.365,493.97 204.302,496.907 212.677,499.72 217.532,501.074 "/>
<polygon id="Area_x5F_14" fill="none" stroke="#000000" stroke-miterlimit="10" points="359.927,395.096 356.74,398.157 
	353.74,399.157 351.052,398.782 348.865,397.532 346.365,394.532 344.24,390.221 343.865,387.596 343.865,384.596 344.677,380.532 
	345.99,378.157 351.24,374.346 357.115,370.907 361.865,367.346 369.677,360.721 372.615,358.596 374.24,358.596 374.927,359.282 
	375.115,361.221 374.365,363.282 370.74,367.282 369.24,369.782 369.74,371.282 371.365,371.532 373.49,370.782 376.115,368.657 
	379.49,368.032 381.365,368.032 381.365,369.407 378.865,373.157 372.99,381.136 365.615,389.157 "/>
<polygon id="Area_x5F_25" fill="none" stroke="#000000" stroke-miterlimit="10" points="351.24,374.346 345.99,378.157 
	344.677,380.532 343.865,384.596 343.865,387.596 344.24,390.221 346.365,394.532 348.865,397.532 348.177,399.157 347.177,401.72 
	342.99,407.157 340.052,412.282 336.802,417.345 333.677,420.532 332.552,420.97 332.552,419.657 333.302,418.032 334.552,415.032 
	335.99,410.095 336.427,405.282 335.802,399.157 335.052,395.407 334.323,391.949 334.052,389.782 334.74,388.221 337.115,382.157 
	338.927,378.346 342.177,372.032 344.615,367.032 347.49,362.657 348.677,360.471 350.552,361.032 353.802,363.282 355.677,366.471 
	355.985,368.907 355.985,371.568 "/>
<polygon id="Area_x5F_24a" fill="none" stroke="#000000" stroke-miterlimit="10" points="337.115,382.157 338.927,378.346 
	342.177,372.032 344.615,367.032 347.49,362.657 348.677,360.471 346.74,359.971 344.99,359.971 342.24,360.846 339.677,363.471 
	335.552,371.157 332.927,377.096 332.552,381.136 333.052,385.782 334.052,389.782 "/>
<polygon id="Area_x5F_OPAI" fill="none" stroke="#000000" stroke-miterlimit="10" points="330.802,425.532 334.927,421.595 
	340.177,416.282 347.552,408.907 350.802,405.782 353.302,402.345 356.74,398.157 353.74,399.157 351.052,398.782 348.865,397.532 
	347.177,401.72 342.99,407.157 340.052,412.282 336.802,417.345 333.677,420.532 332.552,420.97 328.302,426.97 325.99,430.657 "/>
<polygon id="Area_x5F_13_1_" fill="none" stroke="#000000" stroke-miterlimit="10" points="356.74,398.157 359.927,395.096 
	365.615,389.157 370.942,383.363 374.49,383.096 370.99,386.782 368.427,389.782 362.115,396.032 355.552,402.22 350.802,405.782 
	"/>
<polygon id="Area_x5F_11_1_" fill="none" stroke="#000000" stroke-miterlimit="10" points="370.942,383.363 372.99,381.136 
	378.865,373.157 381.365,369.407 385.677,363.721 388.177,360.846 387.865,361.971 386.802,364.971 382.99,371.721 378.052,378.876 
	374.49,383.096 "/>
<polygon id="Area_x5F_10" fill="none" stroke="#000000" stroke-miterlimit="10" points="385.677,363.721 382.095,368.445 
	381.365,368.032 379.49,368.032 376.115,368.657 373.49,370.782 371.365,371.532 369.74,371.282 369.24,369.782 370.74,367.282 
	374.365,363.282 375.115,361.221 374.927,359.282 374.24,358.596 379.74,350.824 381.99,348.282 383.907,347.615 385.032,346.699 
	385.032,344.824 384.532,342.865 384.865,341.574 385.948,339.282 386.782,338.657 387.365,339.865 388.448,342.782 
	389.323,348.574 389.532,352.907 389.532,356.365 389.282,358.324 388.177,360.846 "/>
<polygon id="Area_x5F_9" fill="none" stroke="#000000" stroke-miterlimit="10" points="385.948,339.282 384.865,341.574 
	384.532,342.865 385.032,344.824 385.032,346.699 383.907,347.615 383.407,347.789 380.74,345.657 376.407,341.865 376.615,340.824 
	376.198,339.282 375.032,337.074 372.365,332.865 373.073,332.99 374.49,332.949 375.74,331.949 376.157,330.949 376.282,329.74 
	375.948,327.721 374.907,323.24 373.073,318.949 371.74,316.782 373.407,318.074 376.032,320.74 380.198,325.824 383.282,330.699 
	385.407,335.157 386.782,338.657 "/>
<polygon id="Area_x5F_8B_1_" fill="none" stroke="#000000" stroke-miterlimit="10" points="374.907,323.24 375.948,327.721 
	376.282,329.74 376.157,330.949 375.74,331.949 374.49,332.949 372.365,332.865 371.032,331.407 368.365,329.49 366.282,327.532 
	365.365,325.907 364.115,322.532 362.865,319.282 361.573,316.782 359.948,314.532 365.073,311.449 367.032,312.782 
	370.115,315.199 373.073,318.949 "/>
<polygon id="Area_x5F_32" fill="none" stroke="#000000" stroke-miterlimit="10" points="381.99,348.282 379.74,350.824 
	374.24,358.596 372.615,358.596 369.677,360.721 361.865,367.346 357.115,370.907 356.047,371.532 355.985,368.907 355.677,366.471 
	353.802,363.282 350.552,361.032 348.677,360.471 346.74,359.971 344.99,359.971 344.27,358.24 344.27,357.032 344.573,355.096 
	346.24,352.074 347.823,350.282 352.907,346.532 355.365,344.657 356.698,344.282 360.74,346.865 364.657,348.324 366.99,348.324 
	368.948,347.532 372.407,344.657 376.407,341.865 383.407,347.789 "/>
<polygon id="Area_x5F_24c" fill="none" stroke="#000000" stroke-miterlimit="10" points="372.407,344.657 368.948,347.532 
	366.99,348.324 364.657,348.324 360.74,346.865 356.698,344.282 351.115,339.907 341.927,335.157 336.177,332.949 338.24,330.782 
	340.615,326.907 341.427,324.532 341.427,320.532 341.74,316.782 343.302,317.157 347.74,318.49 353.407,320.99 363.615,326.199 
	366.282,327.532 368.365,329.49 371.032,331.407 372.365,332.865 375.032,337.074 376.198,339.282 376.615,340.824 376.407,341.865 
	"/>
<polygon id="Area_x5F_F7_1_" fill="none" stroke="#000000" stroke-miterlimit="10" points="359.948,314.532 358.177,312.846 
	354.99,310.596 343.615,306.032 332.427,301.907 335.615,295.971 339.865,297.471 350.802,302.471 360.365,308.096 365.073,311.449 
	"/>
<polygon id="Area_x5F_F6" fill="none" stroke="#000000" stroke-miterlimit="10" points="343.615,306.032 354.99,310.596 
	358.177,312.846 359.948,314.532 361.573,316.782 362.865,319.282 365.365,325.907 366.282,327.532 353.407,320.99 347.74,318.49 
	341.74,316.782 333.49,313.346 332.802,310.596 332.427,308.346 331.865,305.251 331.865,303.407 332.427,301.907 "/>
<polygon id="Area_x5F_F2_1_" fill="none" stroke="#000000" stroke-miterlimit="10" points="333.326,300.232 331.865,299.407 
	322.427,294.721 306.115,289.157 291.427,284.221 281.74,281.782 276.115,280.721 273.99,278.721 273.427,277.532 274.24,274.471 
	276.115,274.907 281.74,276.282 291.49,279.221 304.052,283.782 315.865,287.971 328.615,292.846 335.615,295.971 "/>
<polygon id="Area_x5F_F3" fill="none" stroke="#000000" stroke-miterlimit="10" points="331.865,299.407 322.427,294.721 
	306.115,289.157 291.427,284.221 281.74,281.782 276.115,280.721 272.615,285.532 271.427,289.032 271.99,290.657 274.365,291.907 
	285.74,295.971 296.615,300.232 307.302,303.846 318.115,307.721 323.552,309.407 328.302,311.221 333.49,313.346 332.802,310.596 
	332.427,308.346 331.865,305.251 331.865,303.407 332.427,301.907 333.326,300.232 "/>
<polygon id="Area_x5F_24d" fill="none" stroke="#000000" stroke-miterlimit="10" points="333.49,313.346 328.302,311.221 
	323.552,309.407 318.115,307.721 307.302,303.846 296.615,300.232 285.74,295.971 274.365,291.907 275.24,294.782 275.615,298.407 
	277.49,304.032 280.24,308.407 281.74,312.282 281.74,315.782 286.49,317.657 301.99,322.199 311.99,326.157 326.365,330.157 
	336.177,332.949 338.24,330.782 340.615,326.907 341.427,324.532 341.427,320.532 341.74,316.782 "/>
<polygon id="Area_x5F_V6" fill="none" stroke="#000000" stroke-miterlimit="10" points="81.24,367.471 78.865,365.282 
	71.928,359.471 68.365,357.532 65.475,356.064 65.74,354.282 65.928,352.157 65.928,348.846 66.24,343.407 70.178,339.971 
	76.053,335.221 80.803,331.157 82.803,330.346 84.115,330.657 85.115,331.782 85.303,333.971 85.178,336.782 85.365,341.032 
	86.115,342.721 87.178,343.05 88.553,342.721 90.615,341.346 92.553,340.346 93.115,340.782 93.115,341.907 93.115,343.721 
	92.615,348.471 88.428,355.846 84.053,364.032 82.928,366.907 82.178,367.471 "/>
<polygon id="Area_x5F_V6A" fill="none" stroke="#000000" stroke-miterlimit="10" points="93.428,353.532 92.99,350.346 
	92.615,348.471 93.115,343.721 93.115,341.907 93.115,340.782 92.553,340.346 90.615,341.346 88.553,342.721 87.178,343.05 
	86.115,342.721 85.365,341.032 85.178,336.782 85.303,333.971 85.115,331.782 84.115,330.657 82.803,330.346 80.803,331.157 
	76.053,335.221 70.178,339.971 67.506,342.302 67.201,341.863 68.615,339.596 71.803,334.782 73.303,332.721 79.295,327.115 
	86.907,319.449 97.74,311.407 99.907,310.115 100.157,310.699 96.907,313.865 93.74,317.115 92.407,319.449 92.407,320.865 
	93.115,321.032 94.323,320.115 95.49,319.282 98.49,316.199 104.573,310.115 111.157,304.699 118.657,299.365 127.24,300.865 
	121.24,306.699 114.74,314.365 105.407,327.699 103.324,333.032 102.907,337.115 103.574,339.532 105.74,341.032 107.74,341.032 
	107.74,342.907 108.365,344.657 108.365,346.782 106.115,351.282 102.99,354.907 99.24,357.407 95.49,357.532 93.74,357.532 "/>
<polygon id="Area_x5F_24b" fill="none" stroke="#000000" stroke-miterlimit="10" points="351.115,339.907 341.927,335.157 
	336.177,332.949 311.99,326.157 301.99,322.199 286.49,317.657 281.74,315.782 280.365,317.782 264.115,323.157 274.365,324.704 
	289.49,327.532 307.49,332.949 317.615,337.782 323.615,339.282 337.49,341.032 345.115,343.532 351.571,347.518 355.365,344.657 
	356.698,344.282 "/>
<polygon id="Area_x5F_24a_1_" fill="none" stroke="#000000" stroke-miterlimit="10" points="345.115,343.532 337.49,341.032 
	323.615,339.282 317.615,337.782 307.49,332.949 289.49,327.532 274.365,324.704 264.115,323.157 258.033,324.704 246.365,335.907 
	262.24,334.032 277.24,332.949 285.865,334.032 295.365,337.282 306.74,341.865 319.99,347.518 325.115,348.898 330.24,348.898 
	336.177,348.324 341.74,347.518 344.865,348.324 347.823,350.282 351.571,347.518 "/>
<polygon id="Area_x5F_F1_1_" fill="none" stroke="#000000" stroke-miterlimit="10" points="265.115,291.282 254.74,292.032 
	242.615,290.657 236.74,289.407 232.99,289.407 236.865,285.532 238.615,283.407 239.24,280.721 238.615,278.782 236.115,277.157 
	229.74,275.282 221.99,273.657 218.74,271.907 218.74,270.282 220.865,268.782 230.615,269.407 248.99,270.657 264.99,272.407 
	274.24,274.471 273.427,277.532 273.99,278.721 276.115,280.721 272.615,285.532 271.427,289.032 271.99,290.657 "/>
<polygon id="Area_x5F_3_1_" fill="none" stroke="#000000" stroke-miterlimit="10" points="218.74,270.282 218.74,271.907 
	221.99,273.657 229.74,275.282 236.115,277.157 238.615,278.782 239.24,280.721 238.615,283.407 236.865,285.532 232.99,289.407 
	231.99,289.407 222.99,290.407 211.865,289.407 203.99,288.032 200.24,287.032 198.365,287.032 196.74,287.907 196.407,285.949 
	196.74,284.471 197.677,284.096 200.677,283.221 201.802,281.782 202.552,279.596 205.177,274.157 205.24,272.907 203.99,272.471 
	202.115,272.471 195.927,272.471 193.802,272.471 193.802,271.721 194.927,271.032 196.74,270.365 203.657,269.699 214.157,268.782 
	220.865,268.782 "/>
<polygon id="Area_x5F_2_1_" fill="none" stroke="#000000" stroke-miterlimit="10" points="184.679,272.157 180.49,275.221 
	176.74,279.199 169.157,280.699 160.658,284.032 161.99,281.532 164.804,279.596 170.615,275.471 174.49,273.596 180.179,271.596 
	183.115,270.971 188.49,270.971 "/>
<polygon id="Area_x5F_5_1_" fill="none" stroke="#000000" stroke-miterlimit="10" points="180.179,271.596 174.49,273.596 
	170.615,275.471 161.99,281.532 160.658,284.032 158.323,284.949 153.74,288.032 146.49,291.532 136.49,295.199 127.24,300.865 
	118.657,299.365 126.49,293.365 142.74,284.032 157.073,277.501 167.407,273.449 176.157,271.615 183.115,270.971 "/>
<polygon id="Area_x5F_PIP_1_" fill="none" stroke="#000000" stroke-miterlimit="10" points="92.739,308.782 93.115,309.782 
	93.74,309.532 95.157,308.782 99.239,306.865 104.989,304.365 106.907,305.365 99.907,310.115 97.74,311.407 86.907,319.449 
	79.295,327.115 73.303,332.721 74.053,330.471 76.053,326.346 76.74,325.096 76.24,324.532 72.928,325.721 71.365,325.221 
	70.74,324.532 78.323,318.282 88.739,310.115 94.586,307.199 "/>
<polygon id="Area_x5F_VIP_1_" fill="none" stroke="#000000" stroke-miterlimit="10" points="101.935,308.74 100.157,310.699 
	96.907,313.865 93.74,317.115 92.407,319.449 92.407,320.865 93.115,321.032 95.49,319.282 98.49,316.199 104.573,310.115 
	111.157,304.699 118.657,299.365 126.49,293.365 118.657,297.949 111.657,301.699 106.907,305.365 "/>
<polygon id="Area_x5F_LIP_1_" fill="none" stroke="#000000" stroke-miterlimit="10" points="92.739,308.782 93.115,309.782 
	93.74,309.532 99.239,306.865 104.989,304.365 106.907,305.365 111.657,301.699 114.72,300.059 110.073,300.865 104.489,302.532 
	99.489,304.365 94.586,307.199 "/>
<polygon id="Area_x5F_1_1_" fill="none" stroke="#000000" stroke-miterlimit="10" points="196.74,284.471 200.677,283.221 
	201.802,281.782 202.552,279.596 205.177,274.157 205.24,272.907 203.99,272.471 193.802,272.471 193.802,271.721 196.74,270.365 
	188.49,270.971 184.679,272.157 180.49,275.221 176.74,279.199 181.24,279.532 189.573,281.782 194.49,284.282 196.407,285.949 "/>
</svg>
