<?xml version="1.0" encoding="utf-8"?>
<!-- Generator: Adobe Illustrator 15.0.0, SVG Export Plug-In . SVG Version: 6.00 Build 0)  -->
<!DOCTYPE svg PUBLIC "-//W3C//DTD SVG 1.1//EN" "http://www.w3.org/Graphics/SVG/1.1/DTD/svg11.dtd">
<svg version="1.1" id="Segmentation" xmlns="http://www.w3.org/2000/svg" xmlns:xlink="http://www.w3.org/1999/xlink" x="0px"
	 y="0px" width="447.167px" height="587px" viewBox="0 0 447.167 587" enable-background="new 0 0 447.167 587"
	 xml:space="preserve">
<polyline id="Contour" fill="#FFFFFF" stroke="#000000" stroke-miterlimit="10" points="370.091,491.971 366.332,496.308 
	356.356,511.055 350.718,522.332 347.393,530.861 344.356,542.283 341.369,550.62 "/>
<g id="Group_VIP">
	<polygon id="VIP_1" fill="#FFFFFF" stroke="#000000" stroke-miterlimit="10" points="110.947,350.96 108.89,353.227 
		105.131,356.888 101.468,360.646 99.927,363.347 99.927,364.984 100.746,365.178 103.493,363.153 106.962,359.588 113.998,352.551 
		121.613,346.286 130.288,340.117 139.347,333.178 130.288,338.479 122.191,342.816 116.697,347.057 	"/>
	<polygon id="VIP" fill="#FFFFFF" stroke="#000000" stroke-miterlimit="10" points="132.456,35.448 135.733,33.23 144.022,29.375 
		152.119,26.869 162.432,24.267 172.455,22.243 179.106,21.182 183.925,21.182 188.648,21.954 195.491,23.784 200.985,25.423 
		200.021,31.399 198.383,31.11 190.287,29.567 181.901,28.026 177.853,27.447 166.961,27.447 161.612,27.93 152.986,29.182 
		142.962,31.785 	"/>
</g>
<g id="Group_V6A">
	<polygon id="V6A" fill="#FFFFFF" stroke="#000000" stroke-miterlimit="10" points="101.107,402.768 100.601,399.082 
		100.167,396.913 100.746,391.419 100.746,389.321 100.746,388.021 100.096,387.516 97.854,388.672 95.469,390.263 93.879,390.644 
		92.649,390.263 91.782,388.31 91.565,383.394 91.71,380.143 91.493,377.611 90.336,376.31 88.818,375.949 86.505,376.888 
		81.011,381.588 74.216,387.082 71.125,389.778 70.773,389.271 72.409,386.648 76.096,381.081 77.831,378.696 84.761,372.213 
		93.565,363.347 106.095,354.045 108.601,352.551 108.89,353.227 105.131,356.888 101.468,360.646 99.927,363.347 99.927,364.984 
		100.746,365.178 102.143,364.117 103.493,363.153 106.962,359.588 113.998,352.551 121.613,346.286 130.288,340.117 
		140.215,341.852 133.275,348.6 125.757,357.466 114.962,372.889 112.553,379.057 112.071,383.779 112.842,386.574 115.348,388.31 
		117.661,388.31 117.661,390.479 118.384,392.502 118.384,394.96 115.781,400.165 112.167,404.357 107.83,407.249 103.493,407.394 
		101.468,407.394 	"/>
</g>
<g id="Group_V6">
	<polygon id="V6" fill="#FFFFFF" stroke="#000000" stroke-miterlimit="10" points="87.011,418.889 84.264,416.357 76.24,409.636 
		72.12,407.394 68.777,405.696 69.083,403.635 69.301,401.177 69.301,397.347 69.662,391.057 74.216,387.082 81.011,381.588 
		86.505,376.888 88.818,375.949 90.336,376.31 91.493,377.611 91.71,380.143 91.565,383.394 91.782,388.31 92.649,390.263 
		93.879,390.644 95.469,390.263 97.854,388.672 100.096,387.516 100.746,388.021 100.746,389.321 100.746,391.419 100.167,396.913 
		95.324,405.443 90.264,414.911 88.963,418.237 88.096,418.889 	"/>
</g>
<g id="Group_V4t">
	<polygon id="V4t" fill="#FFFFFF" stroke="#000000" stroke-miterlimit="10" points="100.88,64.459 96.196,66.835 100.88,75.351 
		107.734,89.904 114.384,100.201 124.938,115.494 134.625,128.795 145.034,144.41 148.793,153.084 151.974,159.445 158.033,148.913 
		157.034,148.313 152.986,145.075 146.335,135.735 137.227,122.868 126.095,107.109 113.083,87.784 104.987,73.422 	"/>
</g>
<g id="Group_V4">
	<polygon id="V4_1" fill="#FFFFFF" stroke="#000000" stroke-miterlimit="10" points="157.204,538.308 149.95,535.971 
		146.48,534.428 140.119,531.633 127.492,526.862 108.986,519.97 95.492,515.826 89.324,514.091 89.324,513.319 90.48,513.319 
		93.468,513.897 101.564,516.115 111.685,519.392 123.733,523.633 135.155,527.681 145.564,531.15 152.938,534.187 156.89,536.789 
		163.347,540.403 	"/>
	<polygon id="V4" fill="#FFFFFF" stroke="#000000" stroke-miterlimit="10" points="177.564,241.805 175.733,243.155 
		165.902,238.914 156.263,234.866 153.371,233.902 150.384,233.07 147.01,231.878 142.866,229.758 130.047,224.745 113.083,218.288 
		95.445,213.373 90.722,211.155 88.12,208.842 87.155,205.758 88.12,201.228 91.975,192.168 94.288,184.939 96.986,178.385 
		99.3,174.626 102.095,169.205 103.348,162.192 102.191,153.036 99.3,138.193 95.156,125.036 89.855,113.808 81.854,104.747 
		80.505,101.664 79.156,98.675 81.083,95.327 82.626,91.446 82.626,87.784 81.276,83.736 80.987,80.748 82.048,75.351 84.457,72.94 
		87.252,70.916 96.196,66.835 100.88,75.351 107.734,89.904 114.384,100.201 124.938,115.494 134.625,128.795 145.034,144.41 
		148.793,153.084 151.974,159.445 155.01,165.084 158.033,177.373 158.033,182.626 156.841,188.211 154.914,191.879 
		151.974,194.192 131.685,198.481 114.914,202.095 108.65,204.505 107.107,206.144 107.107,208.072 108.746,210.481 
		115.686,214.047 133.806,222.047 149.323,228.602 163.685,235.252 	"/>
</g>
<g id="Group_V3A">
	<polygon id="V3A_1" fill="#FFFFFF" stroke="#000000" stroke-miterlimit="10" points="63.3,378.045 62.288,380.213 62.072,383.973 
		62.65,386.43 63.951,389.321 66.12,390.552 69.662,391.057 72.409,386.648 76.096,381.081 77.831,378.696 78.698,376.094 
		81.011,371.323 81.806,369.877 81.228,369.226 80.071,369.732 77.397,370.601 75.589,370.021 74.866,369.226 72.192,371.468 
		66.12,375.587 	"/>
	<polygon id="V3A" fill="#FFFFFF" stroke="#000000" stroke-miterlimit="10" points="78.77,63.591 73.952,67.64 69.036,71.398 
		67.108,72.362 64.409,77.567 64.023,79.977 64.794,83.832 66.723,87.784 69.517,90.387 72.216,92.603 74.047,94.82 75.493,96.94 
		77.228,97.904 79.156,98.675 81.083,95.327 82.626,91.446 82.626,87.784 81.276,83.736 80.987,80.748 82.048,75.351 82.626,70.435 
		83.589,67.375 85.906,63.883 83.878,63.977 82.048,64.459 80.505,64.459 	"/>
</g>
<g id="Group_V3">
	<polygon id="V3_2" fill="#FFFFFF" stroke="#000000" stroke-miterlimit="10" points="145.564,531.15 135.155,527.681 
		123.733,523.633 111.685,519.392 101.564,516.115 93.468,513.897 90.48,513.319 89.324,513.319 89.324,514.091 95.492,515.826 
		85.59,514.308 72.915,511.705 65.976,510.043 62.288,508.741 65.758,507.44 71.3,506.573 79.3,507.634 83.156,508.019 
		84.793,507.345 84.793,505.994 81.421,502.235 81.902,501.079 84.793,500.983 111.204,508.741 136.743,516.887 146.77,520.163 
		152.357,522.766 150.046,524.572 150.046,525.44 151.203,526.862 152.938,528.549 155.758,531.15 157.349,533.536 157.349,534.838 
		155.903,534.838 152.938,534.187 	"/>
	<polygon id="V3_1" fill="#FFFFFF" stroke="#000000" stroke-miterlimit="10" points="49.132,379.057 51.156,382.6 55.132,389.466 
		59.396,396.913 63.3,401.684 67.277,404.936 68.777,405.696 69.083,403.635 69.301,401.177 69.301,397.347 69.662,391.057 
		66.12,390.552 63.951,389.321 62.65,386.43 62.072,383.973 62.288,380.213 63.3,378.045 66.12,375.587 62.506,376.599 
		58.602,377.106 53.397,377.611 48.698,377.611 	"/>
	<polygon id="V3" fill="#FFFFFF" stroke="#000000" stroke-miterlimit="10" points="95.445,213.373 86.096,211.444 74.433,208.939 
		63.349,206.047 67.493,203.637 74.336,195.445 80.891,185.807 85.999,177.421 90.433,172.795 93.131,170.193 94.771,166.047 
		93.903,156.313 91.782,148.313 88.794,139.734 86.385,128.361 84.553,122.29 77.71,112.362 66.24,102.627 58.24,94.242 
		56.12,90.965 54.867,85.663 54.578,80.748 55.542,77.856 55.927,76.121 53.518,74.579 59.59,74.097 67.108,72.362 64.409,77.567 
		64.023,79.977 64.794,83.832 66.723,87.784 69.517,90.387 72.216,92.603 74.047,94.82 75.493,96.94 77.228,97.904 79.156,98.675 
		80.505,101.664 81.854,104.747 89.855,113.808 95.156,125.036 99.3,138.193 102.191,153.036 103.348,162.192 102.095,169.205 
		99.3,174.626 96.986,178.385 94.288,184.939 91.975,192.168 88.12,201.228 87.155,205.758 88.12,208.842 90.722,211.155 	"/>
</g>
<g id="Group_V2">
	<polygon id="V2_2" fill="#FFFFFF" stroke="#000000" stroke-miterlimit="10" points="15.879,488.646 18.481,487.055 19.638,484.887 
		19.927,482.862 19.927,479.826 22.385,474.043 27.156,470.718 36.987,470.284 54.336,474.188 77.758,482.14 97.565,489.513 
		103.782,490.525 107.974,490.525 110.432,488.212 110.721,484.742 109.564,481.128 111.299,481.923 116,484.742 122.577,488.646 
		129.012,492.043 139.347,496.235 143.974,497.682 146.795,497.754 151.058,496.742 154.747,495.151 155.444,496.646 
		156.89,503.007 156.89,514.476 156.406,518.621 155.058,520.452 152.357,522.766 146.77,520.163 136.743,516.887 111.204,508.741 
		84.793,500.983 81.902,501.079 81.421,502.235 82.961,504.066 84.793,505.994 84.793,507.345 83.156,508.019 79.3,507.634 
		71.3,506.573 65.758,507.44 62.288,508.741 42.192,503.393 24.988,496.742 17.759,492.26 14.289,488.646 	"/>
	<polygon id="V2_1" fill="#FFFFFF" stroke="#000000" stroke-miterlimit="10" points="123.321,454.804 120.691,453.611 
		113.757,451.2 92.938,446.14 72.409,437.899 62.867,431.827 56.939,425.032 47.975,414.044 37.855,400.743 34.53,395.249 
		33.662,390.768 33.662,379.057 37.06,378.118 40.096,377.611 48.698,377.611 49.132,379.057 51.156,382.6 55.132,389.466 
		59.396,396.913 63.3,401.684 67.277,404.936 72.12,407.394 76.24,409.636 84.264,416.357 87.011,418.889 88.096,418.889 
		88.963,418.237 90.264,414.911 95.324,405.443 100.167,396.913 100.601,399.082 101.107,402.768 101.468,407.394 101.468,409.273 
		104.215,417.514 110.866,427.489 115.059,433.996 119.83,444.261 122.143,449.32 123.733,454.67 	"/>
	<polygon id="V2" fill="#FFFFFF" stroke="#000000" stroke-miterlimit="10" points="53.518,74.579 47.156,74.579 41.302,74.579 
		36.168,74.941 31.976,76.748 30.241,77.904 31.831,79.35 32.916,82.242 32.699,85.133 32.554,88.025 32.554,92.001 33.277,95.398 
		36.602,100.748 44.916,110.218 54.603,119.253 63.132,125.036 72.457,132.554 78.818,137.325 81.349,140.506 81.349,143.687 
		80.337,148.168 78.433,152.506 75.493,157.35 70.433,160.458 55.795,165.229 40.795,169.061 26.41,173.108 19.76,175.927 
		14.771,179.614 12.531,183.807 15.783,187.566 21.855,192.12 31.181,196.385 40.939,200 53.951,204.048 60.602,205.638 
		63.349,206.047 67.493,203.637 74.336,195.445 80.891,185.807 85.999,177.421 90.433,172.795 93.131,170.193 94.771,166.047 
		93.903,156.313 91.782,148.313 88.794,139.734 86.385,128.361 84.553,122.29 77.71,112.362 66.24,102.627 58.24,94.242 
		56.12,90.965 54.867,85.663 54.578,80.748 55.927,76.121 	"/>
</g>
<g id="Group_V1">
	<polygon id="V1_1" fill="#FFFFFF" stroke="#000000" stroke-miterlimit="10" points="5.325,425.61 3.446,434.792 2.867,443.683 
		2.867,451.2 2.867,455.827 3.879,465.803 6.482,475.923 10.385,483.585 14.289,488.646 15.879,488.646 18.481,487.055 
		19.638,484.887 19.927,482.862 19.927,479.826 22.385,474.043 27.156,470.718 36.987,470.284 54.336,474.188 77.758,482.14 
		97.565,489.513 103.782,490.525 107.974,490.525 110.432,488.212 110.721,484.742 109.564,481.128 107.251,478.67 104.071,475.489 
		103.493,471.875 103.926,468.983 107.83,463.489 114.335,458.14 119.251,456.116 123.733,454.67 113.757,451.2 92.938,446.14 
		72.409,437.899 62.867,431.827 56.939,425.032 47.975,414.044 37.855,400.743 34.53,395.249 33.662,390.768 33.662,384.551 
		33.662,379.057 31.927,379.779 29.036,381.515 24.12,386.864 16.891,396.406 10.385,409.707 6.482,420.839 	"/>
	<polygon id="V1" fill="#FFFFFF" stroke="#000000" stroke-miterlimit="10" points="30.241,77.904 26.844,81.134 17.735,92.001 
		12.024,102.844 6.097,119.398 3.639,132.482 3.205,137.904 2.844,142.53 2.844,149.398 2.844,151.133 3.096,154.819 3.783,161.47 
		5.88,170.506 8.917,178.963 10.868,181.855 12.531,183.807 14.771,179.614 19.76,175.927 26.41,173.108 40.795,169.061 
		55.795,165.229 70.433,160.458 75.493,157.35 78.433,152.506 80.337,148.168 81.349,143.687 81.349,140.506 78.818,137.325 
		72.457,132.554 63.132,125.036 54.603,119.253 44.916,110.218 36.602,100.748 33.277,95.398 32.554,92.001 32.554,88.025 
		32.916,82.242 31.831,79.35 	"/>
</g>
<g id="Group_TPt">
	<polygon id="TPt" fill="#FFFFFF" stroke="#000000" stroke-miterlimit="10" points="194.62,63.614 185.949,63.52 175.829,64.459 
		174.383,68.627 173.42,72.555 173.42,76.169 174.961,79.495 180.359,86.29 187.395,95.109 191.732,100.603 195.202,102.916 
		197.805,102.193 211.25,94.82 214.142,95.398 216.984,95.783 219.075,93.374 216.984,87.784 214.768,84.144 210.623,80.458 
		204.551,76.699 201.178,74.097 197.9,70.242 	"/>
</g>
<g id="Group_TH-TF">
	<polygon id="TH-TF" fill="#FFFFFF" stroke="#000000" stroke-miterlimit="10" points="237.853,569.56 233.996,566.717 
		231.897,564.68 225.515,561.897 211.925,556.211 209.9,554.957 209.9,554.283 210.768,553.629 211.828,553.416 199.974,547.729 
		182.914,539.054 174.431,533.753 166.817,527.681 163.154,523.248 158.335,516.019 156.89,514.476 156.406,518.621 
		155.058,520.452 152.357,522.766 150.046,524.572 150.046,525.44 151.203,526.862 152.938,528.549 155.758,531.15 157.349,533.536 
		157.349,534.838 155.903,534.838 153.926,534.838 156.89,536.789 161.759,539.516 173.612,544.958 181.204,547.777 
		191.684,552.259 201.878,557.175 209.9,560.211 215.032,562.018 222.479,565.198 229.345,568.596 239.031,571.849 244.647,573.416 
			"/>
</g>
<g id="Group_TEpv">
	<polygon id="TEpv" fill="#FFFFFF" stroke="#000000" stroke-miterlimit="10" points="181.034,231.974 177.564,234.674 
		176.312,236.215 176.022,237.661 177.468,239.3 178.432,240.842 177.564,241.805 175.733,243.155 182.335,245.564 194.046,250.673 
		203.202,254.721 210.623,258.047 216.984,260.215 225.708,263.781 231.25,265.998 235.684,267.444 243.298,270.408 
		250.045,272.744 255.709,274.022 258.815,270.408 254.672,268.696 247.732,266.505 233.949,261.372 214.431,253.275 
		198.672,244.986 189.564,239.107 183.347,233.517 	"/>
</g>
<g id="Group_TEOm">
	<polygon id="TEOm" fill="#FFFFFF" stroke="#000000" stroke-miterlimit="10" points="158.033,148.913 170.769,156.554 
		180.167,161.903 182.335,162.626 183.347,166.674 195.202,180.987 201.438,188.211 199.396,192.843 196.938,196.457 
		193.612,198.481 189.564,198.481 184.938,195.734 179.735,189.228 171.781,180.409 163.685,173.697 162.094,173.697 
		159.781,175.493 158.033,177.373 156.456,170.867 155.01,165.084 151.974,159.445 	"/>
</g>
<g id="Group_TEO">
	<polygon id="TEO" fill="#FFFFFF" stroke="#000000" stroke-miterlimit="10" points="158.033,177.373 158.033,182.626 
		156.841,188.211 154.914,191.879 151.974,194.192 131.685,198.481 114.914,202.095 108.65,204.505 107.107,206.144 
		107.107,208.072 108.746,210.481 115.686,214.047 133.806,222.047 149.323,228.602 163.685,235.252 177.564,241.805 
		178.432,240.842 177.468,239.3 176.022,237.661 176.312,236.215 177.564,234.674 181.034,231.974 180.456,231.589 170.625,225.132 
		170.625,223.589 171.396,222.767 179.588,222.767 189.564,223.878 195.202,224.071 197.371,222.767 197.949,219.442 
		197.805,217.131 195.202,211.782 189.564,201.662 184.938,195.734 179.735,189.228 171.781,180.409 163.685,173.697 
		162.094,173.697 159.781,175.493 	"/>
</g>
<g id="Group_TEav">
	<polygon id="TEav" fill="#FFFFFF" stroke="#000000" stroke-miterlimit="10" points="258.815,270.408 255.709,274.022 
		260.406,275.54 268.432,277.564 278.263,279.154 286.43,279.95 290.696,279.95 294.526,279.95 299.226,279.588 306.021,278.576 
		313.828,276.118 321.706,272.288 327.056,268.601 330.889,265.564 331.683,264.625 327.489,266.216 323.37,268.601 318.96,270.479 
		317.658,271.637 316.068,273.444 312.454,275.324 305.732,277.203 298.285,278.07 292.431,278.287 285.636,277.637 
		270.382,274.239 	"/>
</g>
<g id="Group_TEa-mp">
	<polygon id="TEa-mp" fill="#FFFFFF" stroke="#000000" stroke-miterlimit="10" points="254.672,250.673 241.178,243.444 
		225.708,231.444 211.105,220.023 197.66,205.421 189.564,198.481 184.938,195.734 189.564,201.662 195.202,211.782 
		197.805,217.131 197.949,219.442 197.371,222.767 195.202,224.071 189.564,223.878 179.588,222.767 173.323,222.767 
		171.396,222.767 170.625,223.589 170.625,225.132 173.131,226.867 180.456,231.589 183.347,233.517 189.564,239.107 
		198.672,244.986 214.431,253.275 233.949,261.372 247.732,266.505 254.672,268.696 258.815,270.408 257.37,266.216 257.37,261.082 
		257.659,254.721 	"/>
</g>
<g id="Group_TEa-ma">
	<polygon id="TEa-ma" fill="#FFFFFF" stroke="#000000" stroke-miterlimit="10" points="269.502,240.565 280.213,245.613 
		295.683,253.854 307.683,259.926 319.683,263.106 330.242,260.94 327.489,266.216 323.37,268.601 318.96,270.479 309.562,269.468 
		286.863,263.974 264.021,257.179 257.659,254.721 254.672,250.673 261.418,249.372 268.511,246.77 270.237,244.89 	"/>
</g>
<g id="Group_TEad">
	<polygon id="TEad" fill="#FFFFFF" stroke="#000000" stroke-miterlimit="10" points="318.96,270.479 316.068,273.444 
		312.454,275.324 305.732,277.203 298.285,278.07 292.431,278.287 285.636,277.637 270.382,274.239 258.815,270.408 257.37,266.216 
		257.37,261.082 257.659,254.721 264.021,257.179 286.863,263.974 309.562,269.468 	"/>
</g>
<g id="Group_SUB">
	<polygon id="SUB" fill="#FFFFFF" stroke="#000000" stroke-miterlimit="10" points="162.554,488.429 160.529,489.44 
		154.747,495.151 155.444,496.646 156.89,503.007 156.89,514.476 158.335,516.019 160.167,518.813 163.154,523.248 166.817,527.681 
		174.431,533.753 182.914,539.054 199.974,547.729 211.828,553.416 228.791,559.777 244.503,564.499 262.431,568.451 
		275.345,570.38 285.658,571.439 291.635,570.669 294.815,569.704 294.14,566.717 292.791,563.247 290.959,560.934 287.008,559.006 
		279.586,557.464 266.285,555.729 241.804,550.331 222.72,543.946 198.624,531.344 180.022,517.367 172.889,508.404 
		170.961,503.682 170.383,500.212 169.708,497.031 167.637,492.887 164.938,488.429 	"/>
</g>
<g id="Group_STPr">
	<polygon id="STPr" fill="#FFFFFF" stroke="#000000" stroke-miterlimit="10" points="293.514,209.469 286.863,221.902 
		292.068,227.975 300.888,236.504 312.02,244.89 321.996,250.384 326.622,252.553 330.536,253.564 331.538,254.432 331.538,256.745 
		330.536,260.215 329.658,262.384 331.538,260.793 335.586,255.733 338.044,250.817 338.044,248.36 337.031,246.625 335.586,246.48 
		334.574,246.77 331.972,245.324 317.947,233.468 304.213,220.312 	"/>
</g>
<g id="Group_STPi">
	<polygon id="STPi" fill="#FFFFFF" stroke="#000000" stroke-miterlimit="10" points="293.514,209.469 281.515,197.903 
		272.984,189.951 268.511,186.192 261.996,178.024 257.515,168.265 251.153,161.036 238.575,143.542 232.647,137.759 
		222.238,130.241 223.636,137.614 223.636,143.976 222.961,148.313 220.937,151.349 219.925,151.638 218.045,149.614 
		215.877,147.735 214.431,148.168 214.431,149.325 219.075,157.132 229.322,170.578 246.382,187.782 269.515,207.445 
		286.863,221.902 	"/>
</g>
<g id="Group_STPc">
	<polygon id="STPc" fill="#FFFFFF" stroke="#000000" stroke-miterlimit="10" points="214.431,148.168 210.623,143.108 
		198.672,131.662 193.612,127.639 187.25,119.542 176.841,107.542 167.01,95.832 163.54,89.615 161.709,83.977 161.083,77.182 
		163.106,72.411 168.745,66.525 171.492,64.459 175.829,64.459 174.383,68.627 173.42,72.555 173.42,76.169 174.961,79.495 
		180.359,86.29 187.395,95.109 191.732,100.603 195.202,102.916 200.552,109.133 210.623,120.699 222.238,130.241 223.636,137.614 
		223.636,143.976 222.961,148.313 220.937,151.349 219.925,151.638 215.877,147.735 	"/>
</g>
<g id="Group_SII">
	<polygon id="SII" fill="#FFFFFF" stroke="#000000" stroke-miterlimit="10" points="260.166,113.796 260.166,109.952 
		258.431,106.193 255.731,98.868 254.672,94.146 254.672,90.193 255.442,85.663 255.925,83.48 257.466,81.808 267.635,83.832 
		278.045,87.784 289.755,93.085 298.141,98.868 302.622,104.362 306.237,110.29 311.586,116.362 317.803,122.29 326.622,126.337 
		337.756,129.518 348.381,131.662 355.971,132.843 359.44,132.843 361.465,137.325 364.935,141.084 367.971,142.675 367.104,144.41 
		366.814,146.723 367.971,149.614 369.706,151.494 373.127,153.614 370.524,153.807 367.441,155.06 362.623,157.855 
		357.802,160.458 353.754,161.036 350.768,160.554 347.876,157.855 344.695,154.481 337.272,148.987 329.369,145.036 
		322.525,142.337 314.237,140.023 304.02,136.265 284.743,126.82 267.395,118.145 	"/>
</g>
<g id="Group_Pro.St.">
	<polygon id="Pro.St." fill="#FFFFFF" stroke="#000000" stroke-miterlimit="10" points="119.251,456.116 114.335,458.14 
		107.83,463.489 103.926,468.983 103.493,471.875 104.071,475.489 109.564,481.128 116,484.742 122.577,488.646 129.012,492.043 
		139.347,496.235 143.974,497.682 146.795,497.754 151.058,496.742 154.747,495.151 160.529,489.44 162.554,488.429 
		164.938,488.429 164.938,487.272 162.698,477.947 157.275,461.826 151.855,447.297 147.662,441.514 146.287,441.514 
		144.048,442.165 141.156,443.827 138.554,446.863 136.022,450.478 133.854,451.852 131.54,452.573 128,453.369 123.733,454.67 	"/>
</g>
<g id="Group_ProM">
	<polygon id="ProM" fill="#FFFFFF" stroke="#000000" stroke-miterlimit="10" points="357.562,111.446 360.791,112.603 
		371.296,116.506 378.019,119.542 383.44,122.579 386.332,125.036 389.224,131.108 392.549,136.892 393.995,141.807 
		393.995,145.855 392.115,150.337 389.224,153.614 386.621,156.313 387.296,153.614 385.898,151.783 387.488,150.048 
		389.224,147.301 389.224,144.265 385.32,141.374 380.115,140.072 373.127,140.795 367.971,142.675 364.935,141.084 
		361.465,137.325 359.44,132.843 358.284,127.59 356.55,125.036 354.959,122.434 353.947,120.121 354.092,116.073 354.67,113.796 	
		"/>
</g>
<g id="Group_Temp.Pole">
	<polygon id="POLE" fill="#FFFFFF" stroke="#000000" stroke-miterlimit="10" points="327.489,266.216 329.658,262.384 
		331.538,260.793 335.586,255.733 338.044,250.817 338.044,248.36 337.031,246.625 335.586,246.48 332.839,238.818 331.394,232.457 
		331.972,230.432 333.562,229.276 335.586,226.24 339.489,226.384 341.658,227.348 343.249,227.348 345.924,227.251 
		346.937,225.806 348.838,222.767 349.821,220.884 348.742,226.023 345.635,237.734 342.092,248.433 339.489,254.649 
		335.948,259.781 331.683,264.625 	"/>
</g>
<g id="Group_PIP">
	<polygon id="PIP_1" fill="#FFFFFF" stroke="#000000" stroke-miterlimit="10" points="100.31,351.009 100.746,352.165 
		101.468,351.876 103.107,351.009 107.828,348.792 114.479,345.9 116.697,347.057 108.601,352.551 106.095,354.045 93.565,363.347 
		84.761,372.213 77.831,378.696 78.698,376.094 81.011,371.323 81.806,369.877 81.228,369.226 77.397,370.601 75.589,370.021 
		74.866,369.226 83.637,361.997 95.684,352.551 102.446,349.178 	"/>
	<polygon id="PIP" fill="#FFFFFF" stroke="#000000" stroke-miterlimit="10" points="109.806,42.676 103.445,44.99 93.421,51.302 
		85.518,57.809 80.216,62.146 78.77,63.591 80.505,64.459 82.048,64.459 83.878,63.977 85.906,63.883 87.059,62.146 92.264,54.724 
		97.758,50.097 104.987,45.76 111.444,43.929 	"/>
</g>
<g id="Group_Pi">
	<polygon id="Pi" fill="#FFFFFF" stroke="#000000" stroke-miterlimit="10" points="312.694,180.216 314.117,178.819 
		315.779,178.024 318.744,178.024 321.925,178.747 325.032,180.987 329.369,185.903 333.057,190.602 336.237,193.276 
		339.996,195.589 342.67,196.53 344.839,196.891 346.357,197.614 347.586,199.927 348.381,205.276 348.381,213.662 348.381,216.409 
		347.947,220.529 347.971,223.396 346.937,225.806 345.924,227.251 343.249,227.348 343.104,224.578 342.67,221.951 
		341.128,217.228 338.623,211.108 335.346,205.372 330.719,199.397 323.201,191.301 	"/>
</g>
<g id="Group_PGa">
	<polygon id="PGa_1" fill="#FFFFFF" stroke="#000000" stroke-miterlimit="10" points="189.564,198.481 197.66,205.421 
		211.105,220.023 225.708,231.444 241.178,243.444 254.672,250.673 261.418,249.372 268.511,246.77 270.237,244.89 269.502,240.565 
		265.177,238.529 247.539,228.987 238.575,221.902 233.949,216.119 230.769,213.373 224.117,209.469 217.611,205.276 
		204.311,191.542 201.438,188.211 199.396,192.843 196.938,196.457 193.612,198.481 	"/>
	<polygon id="PGa" fill="#FFFFFF" stroke="#000000" stroke-miterlimit="10" points="182.335,139.349 191.588,150.482 
		198.094,156.698 207.925,166.819 217.756,178.819 228.021,188.505 231.202,189.951 236.262,193.421 247.395,202.686 
		263.298,217.999 279.924,233.758 285.707,239.107 292.068,244.312 297.129,247.781 301.899,249.806 305.369,252.119 
		308.983,254.866 314.622,257.179 320.839,258.047 325.466,258.047 328.791,255.588 329.578,253.316 326.622,252.553 
		321.996,250.384 312.02,244.89 300.888,236.504 292.068,227.975 286.863,221.902 269.515,207.445 246.382,187.782 229.322,170.578 
		219.075,157.132 214.431,149.325 214.431,148.168 210.623,143.108 198.672,131.662 193.612,127.639 	"/>
</g>
<g id="Group_Perirhinal">
	<polygon id="PERI" fill="#FFFFFF" stroke="#000000" stroke-miterlimit="10" points="336.453,560.259 332.79,564.21 
		327.393,568.645 321.803,571.439 316.02,573.85 305.706,578.282 298.381,580.5 288.454,580.981 279.875,580.981 268.599,579.246 
		255.972,575.873 245.177,571.054 236.792,566.812 231.897,564.68 233.996,566.717 237.853,569.56 244.647,573.416 248.213,574.957 
		256.814,577.849 267.224,580.523 279.946,582.476 287.32,582.981 289.777,582.981 298.308,582.476 307.2,580.981 314.789,578.645 
		322.308,574.957 330.403,568.74 335.682,562.597 338.669,557.175 	"/>
</g>
<g id="Group_PBr">
	<polygon id="PBr" fill="#FFFFFF" stroke="#000000" stroke-miterlimit="10" points="272.984,189.951 281.515,197.903 
		293.514,209.469 304.213,220.312 317.947,233.468 331.972,245.324 334.574,246.77 335.586,246.48 332.839,238.818 331.394,232.457 
		331.972,230.432 327.634,227.348 323.297,222.767 312.694,212.649 302.044,206.288 294.96,199.493 287.152,191.252 281.37,183.156 
		277.321,176.167 275.091,175.493 272.984,175.493 271.538,177.083 271.538,179.542 273.129,182.578 273.707,186.336 	"/>
</g>
<g id="Group_PBc">
	<polygon id="PBc" fill="#FFFFFF" stroke="#000000" stroke-miterlimit="10" points="277.321,176.167 275.091,175.493 
		272.984,175.493 271.538,177.083 271.538,179.542 273.129,182.578 273.707,186.336 272.984,189.951 268.511,186.192 
		261.996,178.024 257.515,168.265 251.153,161.036 238.575,143.542 232.647,137.759 222.238,130.241 210.623,120.699 
		200.552,109.133 195.202,102.916 197.805,102.193 201.438,100.201 206.931,107.253 216.984,116.362 226.72,123.301 
		237.892,131.662 249.708,143.397 262.72,159.012 273.273,170.433 	"/>
</g>
<g id="Group_OPRO">
	<polygon id="OPRO" fill="#FFFFFF" stroke="#000000" stroke-miterlimit="10" points="373.127,153.614 374.381,154.579 
		373.705,157.083 370.333,161.036 367.441,163.445 366.573,164.891 366.863,167.493 368.598,171.638 369.273,177.229 
		368.116,181.759 365.515,186.674 363.49,190.529 361.658,195.06 361.08,198.047 360.791,200.554 363.393,197.373 368.79,190.529 
		373.898,185.036 379.682,179.059 384.79,174.144 390.669,168.034 396.549,162.675 398.477,159.686 401.079,156.313 398.283,158.24 
		394.14,161.71 389.802,165.566 386.139,167.59 383.826,168.034 382.188,167.204 381.802,165.277 383.345,162.096 386.621,156.313 
		387.296,153.614 385.898,151.783 382.284,151.783 378.598,152.168 	"/>
</g>
<g id="Group_OPAI">
	<polygon id="OPAI" fill="#FFFFFF" stroke="#000000" stroke-miterlimit="10" points="375.656,486.043 380.427,481.489 
		386.499,475.345 395.029,466.814 398.788,463.2 401.68,459.225 405.656,454.381 402.187,455.537 399.077,455.104 396.549,453.658 
		394.596,458.501 389.753,464.79 386.354,470.718 382.596,476.573 378.981,480.26 377.68,480.766 372.765,487.706 370.091,491.971 	
		"/>
</g>
<g id="Group_MT">
	<polygon id="MT" fill="#FFFFFF" stroke="#000000" stroke-miterlimit="10" points="117.131,59.399 112.794,59.833 106.433,61.567 
		100.88,64.459 104.987,73.422 113.083,87.784 126.095,107.109 137.227,122.868 146.335,135.735 152.986,145.075 157.034,148.313 
		170.769,156.554 180.167,161.903 182.335,162.626 182.335,159.59 179.443,151.638 172.504,140.072 169.468,132.843 
		166.721,125.036 160.504,113.796 146.335,94.82 137.661,79.929 128.842,66.525 121.324,60.989 	"/>
</g>
<g id="Group_MST">
	<polygon id="MST" fill="#FFFFFF" stroke="#000000" stroke-miterlimit="10" points="171.492,64.459 167.733,64.459 163.396,62.29 
		152.119,55.929 140.263,52.025 134.625,51.302 130.288,51.302 122.336,53.182 116.408,56.652 117.131,59.399 121.324,60.989 
		128.842,66.525 137.661,79.929 146.335,94.82 160.504,113.796 166.721,125.036 168.6,126.193 173.42,131.662 180.359,138.048 
		182.335,139.349 193.612,127.639 187.25,119.542 176.841,107.542 167.01,95.832 163.54,89.615 161.709,83.977 161.083,77.182 
		163.106,72.411 168.745,66.525 	"/>
</g>
<g id="Group_MIP">
	<polygon id="MIP" fill="#FFFFFF" stroke="#000000" stroke-miterlimit="10" points="132.456,35.448 133.806,33.326 137.757,30.532 
		146.24,25.23 156.263,20.219 167.54,15.014 173.42,12.604 176.214,12.122 178.432,12.507 179.684,14.628 180.359,17.134 
		180.359,18.194 179.781,19.736 179.106,21.182 172.455,22.243 162.432,24.267 152.119,26.869 144.022,29.375 135.733,33.23 
		134.16,34.294 133.664,35.026 	"/>
</g>
<g id="Group_MB">
	<polygon id="MB" fill="#FFFFFF" stroke="#000000" stroke-miterlimit="10" points="211.25,94.82 206.931,97.188 216.166,103.639 
		225.708,110.145 236.84,116.795 248.117,125.759 259.395,136.168 272.695,149.614 280.936,160.168 295.683,178.024 
		308.839,191.542 321.128,204.987 332.55,217.999 337.32,224.216 339.489,226.384 341.658,227.348 343.249,227.348 343.104,224.578 
		342.67,221.951 341.128,217.228 338.623,211.108 335.346,205.372 330.719,199.397 323.201,191.301 312.694,180.216 
		309.707,180.216 306.429,178.77 301.128,174.819 297.08,171.06 291.008,164.602 285.996,156.409 284.743,153.133 281.273,148.892 
		275.49,143.783 261.322,131.662 257.755,127.109 255.346,123.061 249.853,116.795 243.684,111.495 222.287,98.772 216.984,95.783 	
		"/>
</g>
<g id="Group_LIP">
	<polygon id="LIP_1" fill="#FFFFFF" stroke="#000000" stroke-miterlimit="10" points="100.31,351.009 100.746,352.165 
		101.468,351.876 107.828,348.792 114.479,345.9 116.697,347.057 122.191,342.816 125.734,340.919 120.359,341.852 113.9,343.78 
		108.117,345.9 102.446,349.178 	"/>
	<polygon id="LIP" fill="#FFFFFF" stroke="#000000" stroke-miterlimit="10" points="109.806,42.676 117.131,40.17 126.769,37.568 
		132.456,35.448 142.962,31.785 152.986,29.182 161.612,27.93 166.961,27.447 174.866,27.447 177.853,27.447 181.901,28.026 
		190.287,29.567 198.383,31.11 200.021,31.399 202.335,33.23 207.251,39.688 209.854,42.676 213.612,45.471 216.311,47.206 
		217.756,48.362 218.527,49.712 217.756,50.58 213.708,50.58 212.455,50.965 210.623,52.025 208.985,50.676 202.721,47.495 
		192.504,44.99 181.419,42.676 166.672,40.844 150.384,40.17 135.059,40.555 119.733,42.29 111.444,43.929 	"/>
</g>
<g id="Group_LB">
	<polygon id="LB" fill="#FFFFFF" stroke="#000000" stroke-miterlimit="10" points="206.931,97.188 201.438,100.201 206.931,107.253 
		216.984,116.362 226.72,123.301 237.892,131.662 249.708,143.397 262.72,159.012 273.273,170.433 277.321,176.167 281.37,183.156 
		287.152,191.252 294.96,199.493 302.044,206.288 312.694,212.649 323.297,222.767 327.634,227.348 331.972,230.432 
		333.562,229.276 335.586,226.24 333.851,225.372 329.08,221.18 319.394,212.36 311.008,204.264 305.514,201.083 302.044,194.722 
		296.55,188.361 286.43,176.072 276.599,166.241 268.357,158.578 253.756,139.928 240.6,126.048 230.913,116.795 225.708,110.145 
		216.166,103.639 	"/>
</g>
<g id="Group_IPa">
	<polygon id="IPa" fill="#FFFFFF" stroke="#000000" stroke-miterlimit="10" points="228.021,188.505 232.214,195.445 
		233.949,200.649 233.949,205.565 232.792,209.469 230.769,213.373 233.949,216.119 238.575,221.902 247.539,228.987 
		265.177,238.529 280.213,245.613 295.683,253.854 307.683,259.926 319.683,263.106 330.242,260.94 330.536,260.215 
		331.538,256.745 331.538,254.432 330.536,253.564 329.578,253.316 328.791,255.588 325.466,258.047 320.839,258.047 
		314.622,257.179 308.983,254.866 305.369,252.119 301.899,249.806 297.129,247.781 292.068,244.312 285.707,239.107 
		279.924,233.758 263.298,217.999 247.395,202.686 236.262,193.421 231.202,189.951 	"/>
</g>
<g id="Group_Insula">
	<polygon id="Insula" fill="#FFFFFF" stroke="#000000" stroke-miterlimit="10" points="315.779,178.024 314.117,178.819 
		312.694,180.216 309.707,180.216 306.429,178.77 301.128,174.819 297.08,171.06 291.008,164.602 285.996,156.409 284.743,153.133 
		281.273,148.892 275.49,143.783 266.912,136.554 261.322,131.662 257.755,127.109 255.346,123.061 249.853,116.795 
		243.684,111.495 234.238,105.904 222.287,98.772 216.984,95.783 218.526,95.177 219.075,93.374 216.984,87.784 223.636,91.543 
		233.274,96.745 242.624,102.723 255.058,110.723 267.395,118.145 284.743,126.82 304.02,136.265 314.237,140.023 322.525,142.337 
		329.369,145.036 337.272,148.987 344.695,154.481 347.876,157.855 350.768,160.554 353.754,161.036 357.802,160.458 
		362.623,157.855 367.441,155.06 370.524,153.807 373.127,153.614 374.381,154.579 373.705,157.083 370.333,161.036 
		367.441,163.445 366.573,164.891 366.863,167.493 368.598,171.638 369.273,177.229 368.116,181.759 365.515,186.674 
		363.49,190.529 361.658,195.06 361.08,198.047 360.791,200.554 355.683,208.65 351.827,217.035 348.838,222.767 347.947,220.529 
		348.381,216.409 348.381,213.662 348.381,205.276 347.586,199.927 346.357,197.614 344.839,196.891 342.67,196.53 339.996,195.589 
		336.237,193.276 333.057,190.602 329.369,185.903 325.032,180.987 321.925,178.747 318.744,178.024 	"/>
</g>
<g id="Group_Gu">
	<polygon id="Gu" fill="#FFFFFF" stroke="#000000" stroke-miterlimit="10" points="367.971,142.675 373.127,140.795 
		380.115,140.072 385.32,141.374 389.224,144.265 389.224,147.301 387.488,150.048 385.898,151.783 382.284,151.783 
		378.598,152.168 373.127,153.614 369.706,151.494 367.971,149.614 366.814,146.723 367.104,144.41 	"/>
</g>
<g id="Group_FST">
	<polygon id="FST" fill="#FFFFFF" stroke="#000000" stroke-miterlimit="10" points="166.721,125.036 168.6,126.193 173.42,131.662 
		180.359,138.048 182.335,139.349 191.588,150.482 198.094,156.698 207.925,166.819 217.756,178.819 228.021,188.505 
		232.214,195.445 233.949,200.649 233.949,205.565 232.792,209.469 230.769,213.373 224.117,209.469 217.611,205.276 
		204.311,191.542 195.202,180.987 183.347,166.674 182.335,162.626 182.335,159.59 179.443,151.638 172.504,140.072 
		169.468,132.843 	"/>
</g>
<g id="Group_F7">
	<polygon id="F7_1" fill="#FFFFFF" stroke="#000000" stroke-miterlimit="10" points="409.367,357.659 407.318,355.709 
		403.633,353.106 390.477,347.828 377.535,343.058 381.224,336.191 386.139,337.926 398.788,343.709 409.85,350.215 
		415.295,354.094 	"/>
	<polygon id="F7" fill="#FFFFFF" stroke="#000000" stroke-miterlimit="10" points="382.573,38.869 390.091,40.459 399.488,42.772 
		405.127,44.652 398.477,40.893 388.79,36.267 383.296,34.098 	"/>
</g>
<g id="Group_F6">
	<polygon id="F6" fill="#FFFFFF" stroke="#000000" stroke-miterlimit="10" points="390.477,347.828 403.633,353.106 
		407.318,355.709 409.367,357.659 411.247,360.262 412.741,363.153 415.633,370.815 416.693,372.695 401.802,365.129 
		395.247,362.237 388.308,360.262 378.766,356.287 377.97,353.106 377.535,350.504 376.886,346.925 376.886,344.792 
		377.535,343.058 	"/>
</g>
<g id="Group_F5">
	<polygon id="F5" fill="#FFFFFF" stroke="#000000" stroke-miterlimit="10" points="357.562,111.446 357.562,109.374 354.67,103.639 
		351.056,98 349.031,91.061 347.586,80.362 346.573,66.194 347.73,58.531 349.031,53.905 353.079,50.291 359.44,49.423 
		366.381,51.302 374.381,53.182 377.657,53.76 379.682,54.917 379.682,56.941 378.019,61.712 376.501,67.206 376.79,69.953 
		374.381,72.411 371.151,76.025 370.14,78.627 370.862,81.808 377.079,88.892 385.176,98 390.091,106.82 391.826,114.482 
		391.826,118.964 392.549,122.29 393.995,123.88 393.995,126.626 392.838,131.662 392.549,136.892 389.224,131.108 386.332,125.036 
		383.44,122.579 378.019,119.542 371.296,116.506 360.791,112.603 	"/>
</g>
<g id="Group_F4">
	<polygon id="F4" fill="#FFFFFF" stroke="#000000" stroke-miterlimit="10" points="337.176,38.484 335.016,42.05 335.016,46.676 
		336.309,53.327 338.767,62.435 343.249,81.808 346.862,91.35 349.031,96.745 351.056,98 349.031,91.061 347.586,80.362 
		346.573,66.194 347.73,58.531 349.031,53.905 353.079,50.291 359.44,49.423 366.381,51.302 374.381,53.182 377.657,53.76 
		378.67,52.748 380.549,46.82 374.381,43.64 370.284,42.194 365.657,42.05 358.284,41.76 351.778,41.616 343.249,39.736 	"/>
</g>
<g id="Group_F3">
	<polygon id="F3" fill="#FFFFFF" stroke="#000000" stroke-miterlimit="10" points="376.886,340.166 365.97,334.745 347.104,328.311 
		330.114,322.601 318.911,319.78 312.405,318.553 308.356,324.118 306.982,328.166 307.634,330.045 310.381,331.491 
		323.537,336.191 336.115,341.12 348.476,345.299 360.982,349.781 367.271,351.731 372.765,353.829 378.766,356.287 377.97,353.106 
		377.535,350.504 376.886,346.925 376.886,344.792 377.535,343.058 378.576,341.12 	"/>
</g>
<g id="Group_F2">
	<polygon id="F2_1" fill="#FFFFFF" stroke="#000000" stroke-miterlimit="10" points="378.576,341.12 376.886,340.166 
		365.97,334.745 347.104,328.311 330.114,322.601 318.911,319.78 312.405,318.553 309.947,316.239 309.296,314.865 310.236,311.324 
		312.405,311.829 318.911,313.419 330.188,316.817 344.717,322.094 358.38,326.938 373.127,332.576 381.224,336.191 	"/>
	<polygon id="F2" fill="#FFFFFF" stroke="#000000" stroke-miterlimit="10" points="318.671,10.243 332.116,14.291 347.586,20.074 
		367.248,27.447 379.248,32.218 383.296,34.098 382.573,38.869 379.682,38.869 376.501,39.592 375.055,41.182 374.381,42.483 
		374.381,43.64 370.284,42.194 365.657,42.05 358.284,41.76 351.778,41.616 343.249,39.736 337.176,38.484 335.016,36.7 
		332.55,31.929 333.995,30.628 337.756,30.628 341.08,29.327 341.08,27.447 339.2,23.11 336.164,19.929 327.056,14.725 	"/>
</g>
<g id="Group_F1">
	<polygon id="F1_1" fill="#FFFFFF" stroke="#000000" stroke-miterlimit="10" points="299.683,330.769 287.683,331.636 
		273.658,330.045 266.863,328.6 262.526,328.6 267.008,324.118 269.032,321.66 269.755,318.553 269.032,316.311 266.141,314.431 
		258.768,312.263 249.804,310.383 246.045,308.359 246.045,306.479 248.502,304.744 259.779,305.468 281.032,306.913 
		299.538,308.938 310.236,311.324 309.296,314.865 309.947,316.239 312.405,318.553 308.356,324.118 306.982,328.166 
		307.634,330.045 	"/>
	<polygon id="F1" fill="#FFFFFF" stroke="#000000" stroke-miterlimit="10" points="248.117,2.002 256.937,2.002 275.109,3.159 
		290.597,4.894 306.526,7.351 318.671,10.243 327.056,14.725 336.164,19.929 339.2,23.11 341.08,27.447 341.08,29.327 
		337.756,30.628 333.995,30.628 332.55,31.929 333.417,33.809 335.016,36.7 337.176,38.484 335.016,42.05 335.016,46.676 
		336.309,53.327 338.767,62.435 343.249,81.808 346.862,91.35 349.031,96.745 347.586,98.724 345.128,100.603 342.236,100.603 
		339.923,98.724 338.622,95.398 329.947,73.567 324.309,61.134 318.236,52.555 310.43,46.242 300.021,39.736 287.442,33.809 
		281.659,28.315 276.599,22.965 273.562,18.628 273.562,10.387 271.538,8.363 268.361,7.062 260.984,5.761 253.467,4.411 
		250.72,3.737 	"/>
</g>
<g id="Group_Entorhinal">
	<polygon id="Entorhinal" fill="#FFFFFF" stroke="#000000" stroke-miterlimit="10" points="228.791,559.777 244.503,564.499 
		262.431,568.451 275.345,570.38 285.658,571.439 291.635,570.669 294.815,569.704 295.297,571.439 296.936,572.403 300.31,572.885 
		309.465,572.307 319.394,569.126 326.235,565.801 331.44,562.09 338.188,555.055 341.369,550.62 340.598,553.223 338.669,557.175 
		336.453,560.259 332.79,564.21 327.393,568.645 321.803,571.439 316.02,573.85 305.706,578.282 298.381,580.5 288.454,580.981 
		279.875,580.981 268.599,579.246 255.972,575.873 245.177,571.054 236.792,566.812 225.515,561.897 211.925,556.211 209.9,554.957 
		209.9,554.283 210.768,553.629 212.399,553.629 	"/>
</g>
<g id="Group_DP">
	<polygon id="DP" fill="#FFFFFF" stroke="#000000" stroke-miterlimit="10" points="117.131,59.399 112.794,59.833 106.433,61.567 
		97.18,66.387 87.252,70.916 84.457,72.94 82.048,75.351 82.626,70.435 83.589,67.375 87.059,62.146 92.264,54.724 97.758,50.097 
		104.987,45.76 111.444,43.929 110.48,47.977 111.637,51.302 115.107,55.929 116.408,56.652 	"/>
</g>
<g id="Group_Core">
	<polygon id="Core" fill="#FFFFFF" stroke="#000000" stroke-miterlimit="10" points="225.708,110.145 230.913,116.795 
		240.6,126.048 253.756,139.928 262.431,150.771 268.357,158.578 276.599,166.241 286.43,176.072 296.55,188.361 302.044,194.722 
		304.068,198.625 305.514,201.083 311.008,204.264 319.394,212.36 329.08,221.18 333.851,225.372 335.586,226.24 339.489,226.384 
		337.32,224.216 332.55,217.999 321.128,204.987 308.839,191.542 295.683,178.024 280.936,160.168 272.695,149.614 259.395,136.168 
		248.117,125.759 236.84,116.795 	"/>
</g>
<g id="Group_AIP">
	<polygon id="AIP" fill="#FFFFFF" stroke="#000000" stroke-miterlimit="10" points="200.985,25.423 207.058,26.58 210.623,28.315 
		220.454,36.026 226.237,38.242 224.985,39.736 224.311,40.749 224.214,41.905 225.274,43.544 230.189,47.014 233.659,48.94 
		234.816,49.712 236.551,51.543 231.153,51.543 221.708,50.58 218.527,49.712 217.756,48.362 216.311,47.206 213.612,45.471 
		209.854,42.676 207.251,39.688 202.335,33.23 200.021,31.399 	"/>
</g>
<g id="Group_46v">
	<polygon id="_x34_6v" fill="#FFFFFF" stroke="#000000" stroke-miterlimit="10" points="429.127,78.627 432.163,79.639 
		434.187,80.362 436.5,80.362 439.536,81.229 441.416,85.278 443.584,93.205 443.584,98.724 443.584,102.627 442.428,106.531 
		439.103,106.531 437.223,105.808 435.777,103.35 435.777,101.47 434.909,99.013 429.127,90.627 428.548,87.784 428.548,81.808 	"/>
</g>
<g id="Group_46d">
	<polygon id="_x34_6d" fill="#FFFFFF" stroke="#000000" stroke-miterlimit="10" points="441.416,85.278 439.392,78.627 
		435.777,71.688 432.886,67.64 429.994,65.905 425.513,65.615 423.199,66.338 421.753,68.627 422.259,71.543 424.645,75.302 
		426.193,77.586 429.127,78.627 434.187,80.362 436.5,80.362 439.536,81.229 	"/>
</g>
<g id="Group_45B">
	<polygon id="_x34_5B" fill="#FFFFFF" stroke="#000000" stroke-miterlimit="10" points="416.625,98 414.813,99.302 410.91,101.615 
		407.296,101.615 404.404,99.302 398.91,89.615 390.813,78.627 389.224,79.495 389.224,81.229 389.224,83.543 390.669,87.784 
		392.26,92.58 393.271,94.724 393.995,97.422 393.995,100.603 395.585,103.35 398.332,107.253 399.961,112.313 401.753,117.663 
		408.308,112.458 414.524,107.832 417.416,104.94 415.97,104.94 416.26,102.193 	"/>
</g>
<g id="Group_45A">
	<polygon id="_x34_5A" fill="#FFFFFF" stroke="#000000" stroke-miterlimit="10" points="421.175,99.302 418.861,104.073 
		417.416,104.94 414.524,107.832 408.308,112.458 401.753,117.663 401.753,120.554 403.826,125.036 406.428,127.59 408.741,127.59 
		414.38,122.579 424.645,109.374 423.055,104.94 422.042,100.603 	"/>
</g>
<g id="Group_44">
	<polygon id="_x34_4" fill="#FFFFFF" stroke="#000000" stroke-miterlimit="10" points="390.813,78.627 387.055,77.037 
		385.176,77.037 383.585,74.724 383.296,71.398 380.549,71.398 376.79,69.953 374.381,72.411 371.151,76.025 370.14,78.627 
		370.862,81.808 377.079,88.892 385.176,98 390.091,106.82 391.826,114.482 391.826,118.964 392.549,122.29 393.995,123.88 
		397.175,122.868 401.753,120.554 401.753,117.663 399.961,112.313 398.332,107.253 393.995,100.603 393.995,97.422 393.271,94.724 
		392.26,92.58 389.224,83.543 389.224,79.495 	"/>
</g>
<g id="Group_32">
	<polygon id="_x33_2" fill="#FFFFFF" stroke="#000000" stroke-miterlimit="10" points="434.861,396.695 432.259,399.635 
		425.897,408.624 424.018,408.624 420.619,411.081 411.584,418.744 406.091,422.863 404.854,423.586 404.783,420.55 
		404.427,417.732 402.258,414.044 398.499,411.441 396.33,410.792 394.091,410.214 392.066,410.214 391.233,408.213 
		391.233,406.815 391.584,404.575 393.513,401.081 395.343,399.008 401.224,394.671 404.066,392.502 405.608,392.068 
		410.283,395.056 414.813,396.743 417.512,396.743 419.776,395.827 423.777,392.502 428.403,389.273 436.5,396.125 	"/>
</g>
<g id="Group_31">
	<polygon id="_x33_1" fill="#FFFFFF" stroke="#000000" stroke-miterlimit="10" points="212.647,355.78 214.093,357.948 
		213.948,360.406 212.503,362.864 207.442,365.467 191.829,368.937 177.949,372.695 161.034,379.057 145.275,389.032 
		137.323,394.093 133.42,394.96 129.661,393.804 126.48,391.057 125.179,386.574 128.457,384.551 134.24,379.635 145.998,368.262 
		155.733,362.575 166.914,359.49 179.348,358.045 193.323,357.659 199.396,357.659 204.117,355.539 209.756,354.045 	"/>
</g>
<g id="Group_29-30">
	<polygon id="_x32_9-30" fill="#FFFFFF" stroke="#000000" stroke-miterlimit="10" points="146.432,417.803 143.685,416.646 
		143.685,414.622 146.505,407.394 160.022,393.081 172.311,386.719 181.274,384.117 190.527,384.84 204.262,385.562 
		233.756,382.382 258.189,377.9 291.491,369.424 277.996,382.382 272.936,383.538 258.768,387.153 240.117,390.263 218.992,390.912 
		196.744,394.093 174.479,401.755 158.54,409.453 149.323,417.803 	"/>
</g>
<g id="Group_25">
	<polygon id="_x32_5" fill="#FFFFFF" stroke="#000000" stroke-miterlimit="10" points="399.295,426.84 393.224,431.249 
		391.704,433.996 390.766,438.695 390.766,442.165 391.199,445.201 393.657,450.188 396.549,453.658 395.752,455.537 
		394.596,458.501 389.753,464.79 386.354,470.718 382.596,476.573 378.981,480.26 377.68,480.766 377.68,479.248 378.548,477.368 
		379.993,473.898 381.657,468.188 382.162,462.622 381.439,455.537 380.571,451.2 379.729,447.2 379.415,444.694 380.211,442.889 
		382.958,435.875 385.054,431.467 388.812,424.164 391.633,418.382 394.958,413.321 396.33,410.792 398.499,411.441 
		402.258,414.044 404.427,417.732 404.783,420.55 404.783,423.628 	"/>
</g>
<g id="Group_24d">
	<polygon id="_x32_4d" fill="#FFFFFF" stroke="#000000" stroke-miterlimit="10" points="378.766,356.287 372.765,353.829 
		367.271,351.731 360.982,349.781 348.476,345.299 336.115,341.12 323.537,336.191 310.381,331.491 311.393,334.816 
		311.827,339.009 313.995,345.515 317.176,350.575 318.911,355.057 318.911,359.105 324.405,361.273 342.332,366.527 
		353.898,371.105 370.524,375.731 381.873,378.961 384.26,376.454 387.007,371.973 387.945,369.226 387.945,364.599 
		388.308,360.262 	"/>
</g>
<g id="Group_24c">
	<polygon id="_x32_4c" fill="#FFFFFF" stroke="#000000" stroke-miterlimit="10" points="423.777,392.502 419.776,395.827 
		417.512,396.743 414.813,396.743 410.283,395.056 405.608,392.068 399.15,387.009 388.523,381.515 381.873,378.961 384.26,376.454 
		387.007,371.973 387.945,369.226 387.945,364.599 388.308,360.262 390.113,360.695 395.247,362.237 401.802,365.129 
		413.608,371.153 416.693,372.695 419.103,374.96 422.187,377.177 423.729,378.863 426.813,383.731 428.162,386.285 
		428.645,388.069 428.403,389.273 	"/>
</g>
<g id="Group_24b">
	<polygon id="_x32_4b" fill="#FFFFFF" stroke="#000000" stroke-miterlimit="10" points="399.15,387.009 388.523,381.515 
		381.873,378.961 353.898,371.105 342.332,366.527 324.405,361.273 318.911,359.105 317.32,361.418 298.525,367.635 
		310.381,369.424 327.875,372.695 348.693,378.961 360.404,384.551 367.344,386.285 383.392,388.31 392.211,391.201 
		399.679,395.811 404.066,392.502 405.608,392.068 	"/>
</g>
<g id="Group_24a">
	<polygon id="_x32_4a_x5F_1_x5F_" fill="#FFFFFF" stroke="#000000" stroke-miterlimit="10" points="392.211,391.201 383.392,388.31 
		367.344,386.285 360.404,384.551 348.693,378.961 327.875,372.695 310.381,369.424 298.525,367.635 291.491,369.424 
		277.996,382.382 296.357,380.213 313.706,378.961 323.682,380.213 334.67,383.973 347.826,389.273 363.151,395.811 
		369.079,397.407 375.007,397.407 381.873,396.743 388.308,395.811 391.922,396.743 395.343,399.008 399.679,395.811 	"/>
	<polygon id="_x32_4a" fill="#FFFFFF" stroke="#000000" stroke-miterlimit="10" points="382.958,435.875 385.054,431.467 
		388.812,424.164 391.633,418.382 394.958,413.321 396.33,410.792 394.091,410.214 392.066,410.214 388.886,411.226 
		385.921,414.262 381.15,423.152 378.114,430.021 377.68,434.693 378.259,440.067 379.415,444.694 	"/>
</g>
<g id="Group_23">
	<path id="_x32_3" fill="#FFFFFF" stroke="#000000" stroke-miterlimit="10" d="M146.287,441.514l-2.24,0.648l-2.892,1.664
		l-2.603,3.035l-2.531,3.615l-2.168,1.373l-2.313,0.723l-3.542,0.797l-4.266,1.301l-1.59-5.35l-2.313-5.06l-4.771-10.265
		l-4.193-6.507l-6.65-9.976l-2.747-8.24v-1.88h2.024l4.337-0.145l4.337-2.892l3.614-4.192l2.603-5.205v-2.458l-0.723-2.023v-2.169
		l4.048-1.445l3.47-0.29l0.542,1.87l0.759,2.612l3.181,2.747l3.759,1.156l3.903-0.867l7.952-5.061l15.759-9.976l16.916-6.361
		c0,0,13.445-3.759,13.879-3.759c0.434,0,15.614-3.47,15.614-3.47l5.061-2.603l1.445-2.458l0.145-2.458l-1.445-2.168l-2.892-1.735
		l-1.59-2.313l0.578-3.036l2.458-3.759l4.626-5.928l3.759-6.65l1.013-5.494l1.879-1.012h2.169l4.337,1.156l9.108,1.591l12.867,1.156
		l10.41-1.156h5.493l6.795,1.445l14.024,1.591l12-0.867l7.951-0.724l2.747,1.446l1.012,3.325l0.435,4.192l2.168,6.506l3.181,5.061
		l1.735,4.481v4.049l-1.591,2.312l-4.192,1.446l-14.603,4.771L258.189,377.9l-24.434,4.481l-29.494,3.181l-13.734-0.723
		l-9.253-0.723l-8.964,2.602l-12.289,6.362l-13.518,14.312l-2.821,7.229v2.024l2.747,1.156h2.892l-2.277,3.76l-0.615,8.963v6.651
		l1.231,4.337H146.287L146.287,441.514z"/>
</g>
<g id="Group_14">
	<polygon id="_x31_4" fill="#FFFFFF" stroke="#000000" stroke-miterlimit="10" points="409.343,450.84 405.656,454.381 
		402.187,455.537 399.077,455.104 396.549,453.658 393.657,450.188 391.199,445.201 390.766,442.165 390.766,438.695 
		391.704,433.996 393.224,431.249 399.295,426.84 406.091,422.863 411.584,418.744 420.619,411.081 424.018,408.624 
		425.897,408.624 426.691,409.418 426.909,411.66 426.042,414.044 421.85,418.671 420.114,421.562 420.692,423.297 422.572,423.586 
		425.03,422.719 428.066,420.261 431.97,419.538 434.139,419.538 434.139,421.128 431.247,425.466 424.451,434.693 415.922,443.972 
			"/>
</g>
<g id="Group_13">
	<polygon id="_x31_3_x5F_1_x5F_" fill="#FFFFFF" stroke="#000000" stroke-miterlimit="10" points="405.656,454.381 409.343,450.84 
		415.922,443.972 422.083,437.271 426.187,436.961 422.139,441.225 419.174,444.694 411.873,451.923 404.282,459.08 398.788,463.2 	
		"/>
	<polygon id="_x31_3" fill="#FFFFFF" stroke="#000000" stroke-miterlimit="10" points="423.127,133.88 422.693,137.904 
		417.055,144.12 409.826,151.133 404.693,155.976 399.994,160.097 396.549,162.675 401.079,156.313 405.416,152.361 
		412.283,146.842 418.428,140.434 	"/>
</g>
<g id="Group_12">
	<polygon id="_x31_2" fill="#FFFFFF" stroke="#000000" stroke-miterlimit="10" points="401.753,120.554 403.826,125.036 
		406.428,127.59 408.741,127.59 414.38,122.579 424.645,109.374 432.597,105.952 435.777,103.35 437.223,105.808 439.103,106.531 
		442.428,106.531 441.416,110.218 439.681,113.904 436.934,118.675 429.85,128.651 428.331,130.748 427.536,130.819 
		428.331,128.217 427.97,127.59 427.247,128.072 425.585,129.952 423.127,133.88 418.428,140.434 412.283,146.842 405.416,152.361 
		401.079,156.313 398.283,158.24 394.14,161.71 389.802,165.566 386.139,167.59 383.826,168.034 382.188,167.204 381.802,165.277 
		383.345,162.096 386.621,156.313 389.224,153.614 392.115,150.337 393.995,145.855 393.995,141.807 392.549,136.892 
		392.838,131.662 393.995,126.626 393.995,123.88 397.175,122.868 	"/>
</g>
<g id="Group_11">
	<polygon id="_x31_1_x5F_1_x5F_" fill="#FFFFFF" stroke="#000000" stroke-miterlimit="10" points="422.083,437.271 424.451,434.693 
		431.247,425.466 434.139,421.128 439.125,414.552 442.017,411.226 441.656,412.527 440.426,415.997 436.018,423.804 
		430.306,432.08 426.187,436.961 	"/>
	<polygon id="_x31_1" fill="#FFFFFF" stroke="#000000" stroke-miterlimit="10" points="422.693,137.904 423.127,133.88 
		425.585,129.952 427.247,128.072 427.97,127.59 428.331,128.217 427.825,129.88 427.536,130.819 428.331,130.748 429.85,128.651 
		436.934,118.675 434.909,122.507 430.211,129.735 426.524,134.434 	"/>
</g>
<g id="Group_10">
	<polygon id="_x31_0" fill="#FFFFFF" stroke="#000000" stroke-miterlimit="10" points="439.125,414.552 434.982,420.016 
		434.139,419.538 431.97,419.538 428.066,420.261 425.03,422.719 422.572,423.586 420.692,423.297 420.114,421.562 421.85,418.671 
		426.042,414.044 426.909,411.66 426.691,409.418 425.897,408.624 432.259,399.635 434.861,396.695 437.078,395.924 438.38,394.864 
		438.38,392.695 437.801,390.43 438.187,388.937 439.438,386.285 440.403,385.562 441.078,386.96 442.33,390.334 443.343,397.032 
		443.584,402.044 443.584,406.044 443.295,408.31 442.017,411.226 	"/>
</g>
<g id="Group_9-46v">
	<polygon id="_x39_-46v" fill="#FFFFFF" stroke="#000000" stroke-miterlimit="10" points="424.645,109.374 423.055,104.94 
		422.042,100.603 421.175,99.302 420.452,93.158 418.861,87.784 418.861,84.555 420.452,81.808 423.488,79.784 424.645,77.037 
		429.127,78.627 428.548,81.808 428.548,87.784 429.127,90.627 431.874,94.724 434.909,99.013 435.777,101.47 435.777,103.35 
		432.597,105.952 	"/>
</g>
<g id="Group_9-46d">
	<polygon id="_x39_-46d" fill="#FFFFFF" stroke="#000000" stroke-miterlimit="10" points="411.633,57.519 413.127,53.931 
		416.404,55.495 429.127,63.52 431.295,65.76 432.886,67.64 429.994,65.905 425.513,65.615 423.199,66.338 421.753,68.627 
		422.259,71.543 424.645,75.302 426.193,77.586 424.645,77.037 421.175,72.411 418.717,70.242 415.97,68.242 414.813,65.471 
		414.091,62.001 413.127,58.531 	"/>
</g>
<g id="Group_9">
	<polygon id="_x39_" fill="#FFFFFF" stroke="#000000" stroke-miterlimit="10" points="439.438,386.285 438.187,388.937 
		437.801,390.43 438.38,392.695 438.38,394.864 437.078,395.924 436.5,396.125 433.415,393.659 428.403,389.273 428.645,388.069 
		428.162,386.285 426.813,383.731 423.729,378.863 424.548,379.008 426.187,378.961 427.632,377.804 428.114,376.647 
		428.259,375.249 427.873,372.913 426.669,367.731 424.548,362.769 423.006,360.262 424.934,361.756 427.97,364.84 432.788,370.72 
		436.355,376.358 438.813,381.515 440.403,385.562 	"/>
</g>
<g id="Group_8r">
	<polygon id="_x38_r" fill="#FFFFFF" stroke="#000000" stroke-miterlimit="10" points="411.633,57.519 413.127,58.531 
		414.091,62.001 414.813,65.471 415.97,68.242 418.717,70.242 421.175,72.411 424.645,77.037 423.488,79.784 420.452,81.808 
		418.861,84.555 418.861,87.784 420.452,93.158 421.175,99.302 418.861,104.073 417.416,104.94 415.97,104.94 416.26,102.193 
		416.693,99.013 416.404,94.724 413.127,84.121 408.886,74.29 407.296,71.182 408.741,66.483 408.741,63.52 409.753,59.688 	"/>
</g>
<g id="Group_8m">
	<polygon id="_x38_m" fill="#FFFFFF" stroke="#000000" stroke-miterlimit="10" points="376.79,69.953 380.549,71.398 
		383.296,71.398 390.38,71.398 399.055,72.411 404.26,72.411 407.296,71.182 408.741,66.483 408.741,63.52 409.753,59.688 
		411.633,57.519 413.127,53.931 403.682,49.423 398.332,47.254 393.995,46.965 390.235,47.833 387.344,48.7 384.163,47.977 
		380.549,46.82 378.67,52.748 377.657,53.76 379.682,54.917 379.682,56.941 378.019,61.712 376.501,67.206 	"/>
</g>
<g id="Group_8l">
	<polygon id="_x38_l" fill="#FFFFFF" stroke="#000000" stroke-miterlimit="10" points="416.404,94.724 416.625,98 414.813,99.302 
		410.91,101.615 407.296,101.615 404.404,99.302 398.91,89.615 390.813,78.627 387.055,77.037 385.176,77.037 383.585,74.724 
		383.296,71.398 390.38,71.398 399.055,72.411 404.26,72.411 407.296,71.182 408.886,74.29 413.127,84.121 	"/>
</g>
<g id="Group_8B">
	<polygon id="_x38_B_x5F_1" fill="#FFFFFF" stroke="#000000" stroke-miterlimit="10" points="426.669,367.731 427.873,372.913 
		428.259,375.249 428.114,376.647 427.632,377.804 426.187,378.961 423.729,378.863 422.187,377.177 419.103,374.96 
		416.693,372.695 415.633,370.815 414.187,366.912 412.741,363.153 411.247,360.262 409.367,357.659 415.295,354.094 
		417.561,355.636 421.126,358.431 424.548,362.769 	"/>
	<polygon id="_x38_B" fill="#FFFFFF" stroke="#000000" stroke-miterlimit="10" points="382.573,38.869 379.682,38.869 
		376.501,39.592 375.055,41.182 374.381,43.64 380.549,46.82 384.163,47.977 387.344,48.7 390.235,47.833 393.995,46.965 
		398.332,47.254 403.682,49.423 416.404,55.495 429.127,63.52 424.5,58.531 416.115,51.302 408.886,46.82 405.127,44.652 
		399.488,42.772 390.091,40.459 	"/>
</g>
<g id="Group_7op">
	<polygon id="_x37_op" fill="#FFFFFF" stroke="#000000" stroke-miterlimit="10" points="212.937,64.459 220.841,66.483 
		234.72,71.206 248.021,76.604 257.466,81.808 255.925,83.48 255.442,85.663 254.672,90.193 254.672,94.146 255.731,98.868 
		258.431,106.193 260.166,109.952 260.166,112.265 260.166,113.796 255.058,110.723 242.624,102.723 233.274,96.745 223.636,91.543 
		216.984,87.784 214.768,84.144 210.623,80.458 204.551,76.699 201.178,74.097 197.9,70.242 194.62,63.614 200.214,63.398 
		205.419,63.591 	"/>
</g>
<g id="Group_7m">
	<polygon id="_x37_m" fill="#FFFFFF" stroke="#000000" stroke-miterlimit="10" points="128.457,384.551 134.24,379.635 
		145.998,368.262 155.733,362.575 166.914,359.49 179.348,358.045 193.323,357.659 199.396,357.659 204.117,355.539 
		209.756,354.045 208.166,351.731 208.744,348.695 211.202,344.937 215.828,339.009 219.587,332.358 220.6,326.864 220.214,324.6 
		217.997,322.672 212.31,319.78 202.672,317.178 197.467,316.793 188.696,318.527 176.166,323.443 170.865,327.009 162.479,331.058 
		150.914,335.299 140.215,341.852 133.275,348.6 125.757,357.466 114.962,372.889 112.553,379.057 112.071,383.779 112.842,386.574 
		115.348,388.31 117.661,388.31 121.709,386.864 125.179,386.574 	"/>
</g>
<g id="Group_7B">
	<polygon id="_x37_B" fill="#FFFFFF" stroke="#000000" stroke-miterlimit="10" points="236.551,51.543 239.731,54.338 
		244.503,59.688 251.587,69.23 260.166,78.772 265.162,83.339 257.466,81.808 248.021,76.604 234.72,71.206 220.841,66.483 
		212.937,64.459 210.623,52.025 213.708,50.58 217.756,50.58 218.527,49.712 221.708,50.58 231.153,51.543 	"/>
</g>
<g id="Group_7A">
	<polygon id="_x37_A" fill="#FFFFFF" stroke="#000000" stroke-miterlimit="10" points="210.623,52.025 212.937,64.459 
		205.419,63.591 200.214,63.398 194.62,63.614 185.949,63.52 175.829,64.459 171.492,64.459 167.733,64.459 163.396,62.29 
		152.119,55.929 140.263,52.025 134.625,51.302 130.288,51.302 122.336,53.182 116.408,56.652 115.107,55.929 111.637,51.302 
		110.48,47.977 111.444,43.929 119.733,42.29 135.059,40.555 150.384,40.17 166.672,40.844 181.419,42.676 192.504,44.99 
		202.721,47.495 208.985,50.676 	"/>
</g>
<g id="Group_5">
	<polygon id="_x35__x5F_1" fill="#FFFFFF" stroke="#000000" stroke-miterlimit="10" points="201.444,307.999 194.864,310.312 
		190.383,312.48 180.407,319.491 178.866,322.383 176.166,323.443 170.865,327.009 162.479,331.058 150.914,335.299 
		140.215,341.852 130.288,340.117 139.347,333.178 158.142,322.383 174.72,314.829 186.672,310.143 196.793,308.021 
		204.841,307.275 	"/>
	<polygon id="_x35_" fill="#FFFFFF" stroke="#000000" stroke-miterlimit="10" points="173.42,12.604 180.359,9.616 187.877,7.111 
		195.298,5.279 201.949,4.411 205.516,4.411 209.082,4.411 211.395,5.376 213.612,9.135 214.961,12.122 217.082,13.664 
		221.226,15.785 225.853,18.966 230.575,23.11 232.503,25.712 232.888,27.833 232.503,30.628 230.864,34.002 227.877,36.894 
		226.237,38.242 220.454,36.026 215.443,32.17 210.623,28.315 207.058,26.58 200.985,25.423 195.491,23.784 188.648,21.954 
		183.925,21.182 179.106,21.182 180.359,18.194 180.359,17.134 179.684,14.628 178.432,12.507 176.214,12.122 	"/>
</g>
<g id="Group_3">
	<polygon id="_x33__x5F_1" fill="#FFFFFF" stroke="#000000" stroke-miterlimit="10" points="246.045,306.479 246.045,308.359 
		249.804,310.383 258.768,312.263 266.141,314.431 269.032,316.311 269.755,318.553 269.032,321.66 267.008,324.118 262.526,328.6 
		261.37,328.6 250.96,329.756 238.093,328.6 228.984,327.009 224.647,325.853 222.479,325.853 220.6,326.864 220.214,324.6 
		220.6,322.89 221.683,322.456 225.152,321.444 226.453,319.78 227.321,317.252 230.356,310.961 230.431,309.516 228.984,309.011 
		226.816,309.011 219.658,309.011 217.2,309.011 217.2,308.144 218.502,307.347 220.6,306.575 228.6,305.805 240.744,304.744 
		248.502,304.744 	"/>
	<polygon id="_x33_" fill="#FFFFFF" stroke="#000000" stroke-miterlimit="10" points="223.636,3.737 235.105,2.87 248.117,2.002 
		250.72,3.737 253.467,4.411 260.984,5.761 268.361,7.062 271.538,8.363 273.562,10.387 273.562,12.845 273.562,15.737 
		273.562,18.628 276.599,22.965 281.659,28.315 287.442,33.809 300.021,39.736 310.43,46.242 318.236,52.555 324.309,61.134 
		329.947,73.567 335.586,87.784 338.622,95.398 339.923,98.724 342.236,100.603 345.128,100.603 347.586,98.724 349.031,96.745 
		351.056,98 354.67,103.639 357.562,109.374 357.562,111.446 356.26,112.603 354.67,113.796 354.092,116.073 353.947,120.121 
		354.959,122.434 356.55,125.036 350.767,123.157 341.947,119.253 333.995,113.796 324.164,105.952 311.73,94.724 301.177,86.001 
		296.55,80.218 293.225,74.001 288.599,67.64 282.671,62.435 276.55,58.676 273.129,55.929 273.562,53.182 272.551,48.989 
		270.382,45.375 264.743,38.484 258.382,32.652 249.562,23.255 246.816,19.062 245.804,14.725 243.057,11.255 239.442,9.52 
		233.515,8.074 227.392,6.05 	"/>
</g>
<g id="Group_2">
	<polygon id="_x32__x5F_1" fill="#FFFFFF" stroke="#000000" stroke-miterlimit="10" points="206.649,308.648 201.805,312.191 
		197.467,316.793 188.696,318.527 178.866,322.383 180.407,319.491 183.662,317.252 190.383,312.48 194.864,310.312 
		201.444,307.999 204.841,307.275 211.058,307.275 	"/>
	<polygon id="_x32_" fill="#FFFFFF" stroke="#000000" stroke-miterlimit="10" points="209.082,4.411 216.021,4.411 220.647,8.219 
		227.392,12.267 231.058,15.158 236.551,22.387 242.045,31.351 245.226,36.989 246.237,40.17 247.539,42.772 251.153,46.676 
		260.984,53.182 266.912,55.929 270.237,55.929 273.129,55.929 276.55,58.676 282.671,62.435 288.599,67.64 293.225,74.001 
		296.55,80.218 301.177,86.001 311.73,94.724 324.164,105.952 333.995,113.796 341.947,119.253 350.767,123.157 356.55,125.036 
		358.284,127.59 359.44,132.843 355.971,132.843 348.381,131.662 337.756,129.518 326.622,126.337 317.803,122.29 311.586,116.362 
		306.237,110.29 302.622,104.362 298.141,98.868 289.755,93.085 278.045,87.784 267.635,83.832 265.162,83.339 260.166,78.772 
		251.587,69.23 244.503,59.688 239.731,54.338 236.551,51.543 234.816,49.712 230.189,47.014 225.274,43.544 224.214,41.905 
		224.311,40.749 226.237,38.242 230.864,34.002 232.503,30.628 232.888,27.833 232.503,25.712 230.575,23.11 225.853,18.966 
		221.226,15.785 217.082,13.664 214.961,12.122 213.612,9.135 211.395,5.376 	"/>
</g>
<g id="Group_1">
	<polygon id="_x31__x5F_1" fill="#FFFFFF" stroke="#000000" stroke-miterlimit="10" points="220.6,322.89 225.152,321.444 
		226.453,319.78 227.321,317.252 230.356,310.961 230.431,309.516 228.984,309.011 217.2,309.011 217.2,308.144 220.6,306.575 
		211.058,307.275 206.649,308.648 201.805,312.191 197.467,316.793 202.672,317.178 212.31,319.78 217.997,322.672 220.214,324.6 	
		"/>
	<polygon id="_x31_" fill="#FFFFFF" stroke="#000000" stroke-miterlimit="10" points="216.021,4.411 223.636,3.737 227.392,6.05 
		233.515,8.074 239.442,9.52 243.057,11.255 245.804,14.725 246.816,19.062 249.562,23.255 258.382,32.652 264.743,38.484 
		270.382,45.375 272.551,48.989 273.562,53.182 273.129,55.929 266.912,55.929 260.984,53.182 251.153,46.676 247.539,42.772 
		246.237,40.17 245.226,36.989 242.045,31.351 236.551,22.387 231.058,15.158 227.392,12.267 220.647,8.219 	"/>
</g>
</svg>
